<?xml version="1.0" encoding="UTF-8"?>
<svg id="Layer_2" data-name="Layer 2" xmlns="http://www.w3.org/2000/svg" viewBox="0 0 216.41 80.84">
  <defs>
    <style>
      .cls-1 {
        fill: #c6d2db;
      }
    </style>
  </defs>
  <g id="Layer_1-2" data-name="Layer 1">
    <g id="object">
      <g>
        <path class="cls-1" d="m25.25,40.63c.36.24.72.48,1.08.6,2.76,1.44,4.91,3.35,7.19,5.27,3.23,2.87,5.51,6.59,6.71,11.14.72,3.12.24,6.59-1.8,10.18-.6,1.2-1.32,2.52-2.28,3.59-.36.48-.96,1.2-1.56,1.68-2.28,2.16-4.79,3.59-7.55,4.67-1.32.72-2.76.84-4.07.72-1.08,0-2.04.12-3.11.72-.96.48-1.8.72-2.88,1.08-2.52.6-4.67.72-6.83.36-3.23-.48-6.35-1.44-8.38-3.59-1.8-1.92-2.28-4.43-1.2-7.79.84-2.04,1.92-4.07,3.47-6.11,1.32-1.92,2.88-3.83,4.79-5.51.36-.24.6-.72.84-1.08.96-1.8,1.44-2.16,3.23-1.92.72-.24,1.2-1.32,2.16-.96-.48.24-.84.48-1.56.84.6.12.96.24,1.2.24,0,.6,0,1.08.12,1.68.12.36,0,.72-.36,1.2-.72.96-1.32,1.92-2.16,2.99-1.2,1.56-2.04,2.99-2.28,4.79-.24,1.08-.24,2.04-.36,3.23-.12.84.24,1.44,1.08,1.68.96.36,2.16.48,3.35.24,2.16-.36,4.43-.84,6.59-1.8,2.16-.96,4.43-1.8,6.59-2.88,1.56-.72,3.23-1.68,4.67-2.99,1.08-.84,1.44-1.8,1.08-2.52-.84-2.76-1.92-5.15-4.19-6.95-3.71-2.99-8.03-5.63-12.34-8.15-2.64-1.56-5.03-3.23-7.31-5.15-2.64-2.04-4.55-4.67-5.99-7.43-2.76-4.55-.24-10.78,3.59-15.45,3.47-4.31,8.15-7.19,12.94-9.82,1.44-.6,2.88-.96,4.19-1.56,7.31-2.64,14.13-2.88,20.72-2.4,2.04.24,3.95.6,5.99.84,2.16.24,4.19.72,5.75,1.92.6.48.96.96.6,1.92-.12.24-.12.6-.12.84-.12.6-.12,1.2-.36,1.8-.96,2.04-1.68,4.07-1.8,6.11-.12.84-.72,2.04-1.32,2.99-.48.96-1.2,1.68-1.68,2.52-.48.84-1.08,1.44-1.92,1.92-1.32.6-2.4,1.2-3.71,1.56-.72.36-1.44.36-1.92,0-1.8-.72-3.71-1.08-5.63-1.32-3.83-.48-7.67-1.08-11.86-.96-1.2.12-2.52.24-3.71.6-1.44.24-2.76.6-4.07.84-8.62,2.16-3.59,8.38.72,11.5,1.92,1.2,3.83,2.64,5.63,4.08Z"/>
        <path class="cls-1" d="m67.77,54.41c-.12-.12-.48-.12-.6.24-.12,0-.12.12-.12.24-.48,1.2-1.08,1.92-2.16,1.68-.6.6-.84,1.2-1.32,1.68-.48.24-1.08.72-1.2,1.56,0,.24-.12.36-.24.6-.6.84-1.2,1.44-1.68,2.16-.48,1.2-1.32,1.92-2.16,2.64-.36.48-.96.84-1.32,1.68,0,.12-.24.48-.6.48-.6.12-1.2.6-1.8,1.08-1.32.72-2.64,1.32-4.07,1.44-1.32,0-2.52-.12-3.71-.72-1.92-1.08-2.64-3.11-2.88-5.75,0-.6,0-1.2.24-1.8.24-3.71.96-7.43,1.92-11.14.6-2.04,1.32-3.83,2.04-5.63,1.56-3.23,2.87-6.71,4.43-9.94,0-.36.12-.48.24-.84.72-2.76,2.16-5.39,3.59-7.9.48-.72.72-1.44,1.2-2.4.6-.12,1.2-.12,1.68.36,1.32.84,2.64,1.8,4.07,2.64.24.12.6.36.6.6.84,1.8,1.92,3.47,2.4,5.51.24,1.2.36,2.28.6,3.47.24,1.32.12,2.76-.48,3.95-.48.96-.72,2.04-1.2,2.99-.12.6-.36,1.2-.48,1.8-.72,2.4-1.44,4.79-2.52,7.19,0,0-.12.12-.12.24,0,0,0,.12-.24.36-.12.84-.36,1.8-.84,2.76.24-.12.48-.12.6-.24,1.2-1.32,2.52-2.88,3.71-4.31,2.16-2.4,4.07-4.79,6.11-7.19.84-.96,1.56-1.68,2.28-2.76,2.28-3.12,4.79-5.87,7.31-8.62.48-.48.96-.84,1.32-.96,1.08-.48,2.16-.6,2.99-.48.48.24.84.36,1.08.6.96.96,1.8,2.04,2.76,2.87.6.48.96,1.2,1.32,2.16.24.84.48,1.56.6,2.52.24,1.2.24,2.4-.12,3.71-.84,2.76-1.56,5.27-2.64,7.79-.24,1.08-.72,2.16-.96,3.47.36-.12.72-.36.84-.48,2.4-1.32,4.55-3.23,6.59-5.39,1.92-1.8,3.95-3.47,6.11-4.67.36-.12.6-.36.96-.72.72-.6,1.32-.48,1.8,0,.6.48.84,1.32,1.68,1.68.6.24.96.84,1.44,1.44-.12,1.08-.12,2.04,0,2.99,0,.84-.24,1.68-.6,2.63-.72.36-.24,1.32-.72,1.92-.12,1.44-.36,2.87-.6,4.19-.12,1.32-.12,2.51,0,3.83,0,.84.24,1.2.84,1.44,1.8.36,8.03-4.07,9.22-5.63,2.16-2.4,3.95-5.15,5.63-8.03.12-.6.36-1.2.72-1.56.24.36.36.36.24.48-.36,1.8.24.72,0,2.76,0-.48-.6,2.04-.96,1.8-.24,0-.24.36-.48.6-.72,1.32-1.44,2.51-2.04,3.95,0,.48-.36.84-.48,1.08-1.08.72-1.8,1.56-2.64,2.4,0,.36-.36.48-.6.6-.6,1.32-5.63,4.91-6.95,4.91-.6,0-3.47-.24-4.07-.72-1.2-1.08-3.11-2.4-3.83-4.07-.6-1.44-.6-3.23-.12-5.03.6-2.99,1.32-5.87,2.4-8.74.12-.36.24-.84.24-1.2.12-.24,0-.36,0-.72-.72.12-1.2.96-1.8,1.08-.6.24-1.2.48-1.68.84q-.12,1.2-.84,2.28c-.48.48-.72,1.08-1.2,1.68-.6-.36-1.2,0-1.8.48-.96.84-1.8,1.56-2.88,2.4-.24.24-.6.36-.84.84-1.08,1.32-2.4,2.28-3.83,3.35-.12.24-.36.24-.6.6-.72,1.44-2.16,2.16-3.23,3.35-.36.48-.72.96-1.2,1.44-1.92,1.56-4.07,2.16-6.11,1.92-.96-.12-1.8-.72-2.52-1.56-.84-.84-1.2-1.92-1.08-3.59,0-1.32.24-2.51.72-3.83,1.92-5.99,4.79-11.26,8.27-16.29.84-1.56,1.92-2.99,2.76-4.67.48-.48.84-1.08.6-1.8-.36-.36-.84-.36-1.32.12-.24.36-.6.6-1.08.96-1.2,1.2-2.4,2.4-3.59,3.35-.72.84-1.32,1.56-1.8,2.64-.6,1.44-1.32,2.63-2.28,3.71-1.08,1.08-2.04,2.04-2.76,3.23-.72.96-1.2,2.04-1.8,2.99-.24.6-.72,1.44-1.08,2.04-.24.36-.6.84-.84,1.2-.12,0-.36-.24-.48-.24Z"/>
        <path class="cls-1" d="m121.07,38.48l.12-.12c.36-.48.6-.6.96-.84,1.32-.24,4.31-2.4,5.51-1.68.36.48,1.56,1.08,2.04,1.56.48.6.6,1.44.24,2.63-.72,1.56-1.56,2.99-2.52,4.91-.24.72-.48,1.32-.6,1.8-.48,1.08-.96,2.52-1.56,3.59-.48,1.44,1.68-3.12,1.44-1.92,0,.36-.24.72-.36.96-.96,2.4-.96,1.92-1.08,4.07,0,1.2-.48,7.31-.36,8.38.12.84.6,1.32.96,1.8.48.24,1.08.72,1.8.96.6.48,1.2.24,1.92.12,9.94-3.59,6.35-4.91,12.1-11.02,1.08-1.56,2.4-2.99,2.99-4.91q0-.12.36-.72c.6,1.2-.72,2.87.96,3.23-2.52,4.55-4.31,11.14-8.39,13.54-1.2,1.56-9.34,8.74-14.61,6.71-1.68.6-3.23-1.08-5.03-1.8-1.2-.48-2.4-1.44-3.47-2.63-.6-1.56-1.2-3.23-1.2-4.79-.24-.72-.24-1.56-.24-2.16.36-1.44.12-4.19.6-5.15.12-.6.36-1.2.36-1.92.24-.12,0-.72.84-.84.12,0,.24-.48.36-.6.6-.84.72-1.56,1.32-2.4,0,0-2.52,2.52-1.08.12.96-2.4,3.11-5.03,3.83-6.71,0-.24.24-.6.24-.6.36-.72.72-1.2.48-2.04-.12-.48,0-.96.36-1.68.24.12.36.24.72.12Zm11.02-13.06c-.24.36-.48.6-.6,1.08,0,.12,0,.36-.24.6-.36.36-.72.84-1.2,1.44-.24.36-1.2.84-1.8.96-.24-.12-.6.12-.84.36-.72.48-1.2.36-1.68.12-.36-.24-.6-.24-.96-.24-.48,0-.84,0-1.32-.12.12-.12.24-.36.36-.48,0-.36.24-.72.36-1.2.24-.6.48-.96.84-1.56,0-.24.36-.48.36-.6,0-.72.6-1.32.96-2.04.24-.36.48-.72.72-1.08.24-.24.48-.48.72-.48.24-.12.48-.12.6,0,0,.24.24.24.48.12.24-.12.36-.24.48-.12.48.24,1.08.36,1.56.48.84.36,1.44.96,1.92,1.8-.36.36-.48.72-.72.96Z"/>
        <path class="cls-1" d="m178.2,54.29c-.6,1.2-2.64,3.83-2.64,5.15-.12.12-.48.48-.72.6-.36.36-.72.84-.96,1.44-.24.6-.6.84-.84,1.32-1.68,2.99-2.76,4.67-5.51,7.31-.72.6-7.07,6.71-7.55,7.31-3.47,2.88-8.15,1.56-11.62,1.68-.96,0-1.92-.12-2.52-.48-1.08-.6-3.47-1.56-4.19-2.64-1.08-2.64-3.83-4.43-4.07-8.15-.12-.96-.6-1.56-.72-2.52.12-3.83.72-7.67,1.2-11.62.72-2.76,1.32-5.75,1.8-8.5,1.2-5.15,1.56-5.75,3.83-10.42,1.2-3.12,2.28-3.35,3.47-6.47.84-1.68,1.8-3.35,2.76-4.79.72-1.8,1.92-3.47,2.99-5.27,2.28-3.95,4.79-7.43,7.43-10.3,1.8-1.8,3.71-3.71,5.51-5.27,1.08-.84,2.16-1.8,3.23-2.16.36-.24.72-.36,1.08-.48,1.68-.12,3.23.12,4.43,1.32,1.2,1.08,1.56,2.76,1.2,5.03-.24,1.44-.36,2.87-.72,4.19-.12,1.08-.6,2.04-1.2,3.23-.84,2.04-1.8,3.95-3.11,5.87-.84,1.56-1.8,3.12-2.64,4.67-1.44,2.15-2.64,4.43-4.07,6.47-2.52,3.35-4.67,6.95-6.95,10.3-3.71,6.35-3.35,7.43-4.67,13.77-.48,2.52-.24,3.95-.36,6.47.12.72.48,5.39.6,5.87.36,1.68.72,2.28,1.44,3.83.24.48,1.92.84,2.52,1.08.84.6,7.19-3.71,8.03-4.31,1.92-1.08,3.47-2.88,5.15-4.55,1.8-1.68,2.64-3.59,4.19-5.87,2.16-2.87,2.88-5.27,5.15-8.38,1.68-.24.72,2.28-.96,5.27Zm-19.16-21.56c3.83-6.11,4.43-7.07,7.91-13.66,1.32-2.52,2.4-5.03,3.71-7.55.6-1.8.96-3.59,1.2-5.39.24-.6.24-.96-.36-.72-.6.12-.96.36-1.32.6-1.56.6-2.99,1.8-4.07,3.47-.84.96-1.44,2.04-2.4,2.99-1.08,1.32-1.68,2.64-2.16,4.19-.6,1.2-1.2,2.63-1.8,3.83-.84,2.51-2.04,5.03-3.23,7.54-.48,1.2-.84,2.52-1.32,3.71-1.44,4.07-.84,2.04-2.16,6.11-.36.96-.12,3.71,1.44,2.04,1.8-2.63,2.99-4.43,4.55-7.19Z"/>
        <path class="cls-1" d="m184.19,48.9c0,.24-.24.48-.48.6-.12.12-.36.24-.36.6-.12.48-.24.6-.6.72-.24.12-.24.24-.36.96.24,0,.36,0,.48.12v.12h-.84c.12-.36.12-.72.12-.96h-.24c-.12.84-.24,1.68-.36,2.52.24.12.36.24.48.24.12.84.12,1.56.12,2.4s.24,1.56.48,2.16c.36.48,1.32,3.11,1.68,3.59,1.68,1.68,3.71,3.83,5.63,3.95.6.12,4.07-.48,4.67-.6,2.87-.84,5.63-2.4,8.27-4.43,2.04-1.56,3.95-3.35,5.99-5.03.12-.12.24-.24.36-.36.72-.84,1.44-1.56,2.16-2.4,1.32-1.32,2.52-2.64,3.59-4.19.36-.6.72-1.2,1.44-1.44-.24,1.08-.48,2.04-.96,2.99-.12.36-.36.72-.6.96-.72.84-1.32,1.56-1.8,2.52-.36.48-.84.96-1.2,1.44-.12.12-.24.36-.48.72.36-.12.6-.24.96-.36-.12.72-.72.84-.84,1.44.12.12.12.24.36.36-.36.6-.72.96-1.2,1.44-.72.6-1.44,1.32-2.04,2.04-1.08,1.2-2.28,2.16-3.47,3.12-.6.48-1.08.96-1.68,1.32-.48.36-.96.6-1.44.96-.72.36-1.44.72-2.16,1.2-1.2.72-2.52,1.32-3.83,1.56-.36.12-.72.24-1.08.36-1.44.48-2.88.72-4.31.84-1.68.24-8.74-1.08-10.3-1.68-4.19-1.68-5.03-3.71-6.95-5.39-.72-.6-1.32-1.56-1.68-2.52-.6-1.56-.72-3.23-.84-5.03,0-3.71.96-7.31,2.52-10.66q.36-.72.24-1.8c-.6.36-.96.6-1.2,1.32-.36,1.08-.84,2.04-1.44,3.11,0-1.08.48-1.8.84-2.63.96-2.16,2.04-4.19,3.35-6.11,1.32-2.04,2.76-3.83,4.43-5.51,1.68-1.8,3.47-3.35,5.39-4.55.48-.24.84-.36,1.2-.6.6-.24,1.2-.36,1.56.24.36.36.84.24,1.08.48.36.24.48.72.72.96,1.2.6,5.75,1.8,6.83,2.51.36.24.6.72.84,1.2.6,1.08,1.08,2.28,1.92,2.99.24.24.36.72.48,1.08.24,1.44.36,2.76,0,4.31-.24,1.68-.96,3.23-1.8,4.67-.48.84-.96,1.56-1.32,2.52-.24.84-.72,1.56-1.2,2.4-.48.96-1.32,1.56-2.16,1.8-.72.36-1.56.48-2.28.36-.36-.12-.72,0-.96-.48,0-.12-.12-.12-.12-.12-.96.12-1.56-.96-2.28-1.32-.12-.12-.24-.48-.24-.6.24-.48,0-.72-.12-1.08-.48-.96-.96-2.04-1.56-2.99-.12-.36-.48-.48-.84-.12-.12.6-.6,1.08-.6,1.8Zm-11.38,10.78c.12.36.24.6.36.96,0,.36.36.6.12,1.08-.12-.12-.24-.12-.24-.24-.6-1.2-.84-2.76-1.08-4.31-.12-.12,0-.24,0-.36,0-1.8,0-3.48.48-5.27.12-.36.24-.72.24-1.08v-.84c-.36.72-.6,1.2-.72,1.68-.12.6-.24,1.08-.36,1.68-.48,3.12-.36,5.99.96,8.5.24.48.6.84.96,1.32.24.24.48.36.84.48,0,.12.12,0,.36,0-.36-.6-.72-1.08-.96-1.68-.36-.72-.36-1.44-.72-2.04-.12,0-.24.12-.24.12Zm0-7.67c-.6,1.92-.48,3.71-.24,5.51,0,.12.12.12.24.24.12-1.32.24-2.52.36-3.71.12-.84.24-1.68-.12-2.4-.12.12-.24.24-.24.36Zm8.5,2.99v.24-.24Zm6.59-12.58c-.24.36-.6.84-.84,1.32-.48.84-.36,1.44.24,1.8.36.24.84.48,1.08.84.72.84,1.68.72,2.64.6.84-.24,1.44-1.08,1.92-1.92.84-2.04,1.32-2.4,2.04-4.43,1.92-4.55-1.92-3.47-3.71-2.04-1.32.96-2.28,2.51-3.36,3.83Z"/>
      </g>
    </g>
  </g>
</svg>