<?xml version="1.0" encoding="UTF-8"?>
<svg id="Layer_2" data-name="Layer 2" xmlns="http://www.w3.org/2000/svg" viewBox="0 0 246.59 91.94">
  <defs>
    <style>
      .cls-1 {
        fill: #c6d2db;
      }
    </style>
  </defs>
  <g id="Layer_1-2" data-name="Layer 1">
    <g id="object">
      <g>
        <path class="cls-1" d="m44.47,54.45c0,.81-.4.81-.27,1.48.14.54-1.34,4.43-1.61,4.97-.81,2.15-1.75,4.3-2.55,6.45-1.21,2.42-2.42,4.57-3.63,6.85-.54.94-6.85,9-7.52,9.54-1.75,1.21-4.7,4.7-6.32,5.78-1.07.67-5.11,2.15-6.05,2.28-1.75.13-3.63.27-5.24-.13-2.82-.4-6.99-4.57-8.33-7.26-.67-1.21-1.48-2.28-1.88-3.63-.54-1.75-.94-4.57-1.07-6.58,0-11.29,1.34-12.9,4.57-23.78.27-.94.4-1.75.67-2.69.14-.94.54-1.88.81-2.69.4-1.48.81-2.96,1.21-4.3.67-2.96,4.17-8.06.94-8.73-.94-.13-1.75,0-2.55-.67-.81-.54-1.61-.94-2.42-1.48-.27-.27-.67-.54-.81-1.21.27-.13.54-.27.67-.27,1.88-.4,3.63-.81,5.51-1.21,1.21-.27,2.55-.4,3.9-.54.54-.13,1.07-.4,1.34-1.07.4-1.07,1.07-2.01,1.34-3.22,1.34-2.55,2.28-5.24,3.76-7.66,1.34-2.15,2.69-4.03,4.43-5.64.27-.4.67-.81.94-1.07.54-.4,1.07-.67,1.75-.54.81.27,1.61-.13,2.55-.13q.13,0,.27-.13c1.88-.4,2.55.4,3.09,1.88.67,1.34.94,2.69.94,4.3,0,.81.13,1.48.27,2.15.13.54.13,1.21,0,1.88-.14.67-.27,1.34-.4,2.15-.27,1.07-.54,2.15-.81,3.22,0,.4,0,.67-.14,1.07.4.27.81.27,1.34.27,1.61-.13,3.36-.27,4.97-.4h6.99c.81,0,1.61.27,2.55.4-.27.4-.4.67-.54.81-.27.27-.67.54-.94.67-.94.4-2.01.94-2.96,1.34,0,.13-.14.13-.14.13-1.48.13-3.09.81-4.7.67-.94,0-1.88.13-2.82.4-.54.27-1.21.27-1.75.4-1.07.13-2.01.27-3.09.4-.54.13-.81.54-1.07,1.07-.14.13-.14.27-.27.4-1.61,4.57-3.76,8.87-5.51,13.3-.27.54-.54,1.07-.67,1.48-.67,1.34-1.21,2.55-1.61,4.03-.4,1.21-1.07,2.42-1.75,3.49-.54.94-.4,2.15-1.07,3.09-1.48,3.36-3.23,13.57-2.96,18.68.14,2.15.67,4.16,1.34,6.18.27.67.81,1.08,1.21,1.61.14,0,.27.13.54.13,1.21,0,3.63.14,4.84-.67.81-.54,4.84-3.76,5.64-4.43,2.01-2.01,6.58-6.99,7.93-9.67,1.21-2.28,1.88-5.24,3.09-7.39.54-1.34,1.88-4.3,2.55-5.78.67.14,1.61-.4,1.48,0Zm-20.83-19.89c1.34-3.36,1.75-6.05-2.69-3.22-1.48,4.43-2.02,7.52-3.22,11.69-2.96,11.15,1.34,2.82,3.22-2.15.94-2.55,1.48-3.9,2.69-6.32Zm4.17-15.45c.14-.54.27-1.21.4-1.88.14-1.07.4-2.15.54-3.22.14-1.21,0-2.42-.13-3.63-.14-.54-.54-.67-.81-.4-.54.4-.94.67-1.21,1.34-.54,1.07-1.07,2.28-1.34,3.49-.13.4-.4.81-.54,1.21-.27.54-.54,1.07-.81,1.75-.27,1.34-.54,2.82-.94,4.3-.54,3.49,3.22,3.63,4.03,1.21.27-1.35.54-2.69.81-4.17Z"/>
        <path class="cls-1" d="m52.8,59.15c.54-2.01,5.24-11.55,6.18-13.17.81-1.21,1.61-2.42,2.28-3.76.81-1.07,1.61-2.28,2.15-3.36.54-.94,1.34-1.48,2.15-1.61.94,0,1.75-.13,2.55-.13,1.61,0,2.55,1.21,3.36,2.96v.54c.27,1.75.67,3.63.94,5.51.27,1.75.13,3.63.13,5.37,0,1.21.13,2.42,0,3.63.67.4.54.94.67.81.27-.27,1.21.13,1.48-.13.13-.27.4-.4.54-.67.54-.4,1.07-.81,1.61-1.48.4-.67.81-.67,1.34,0,0,.4-.13.81-.54,1.07-.13.13-.27.4-.4.67-.13.4-.4.81-.8.94l-.4.4c-.13.13-.4.27-.4.4-.13.13-.27.13-.4.27-.54.54-.94.67-1.48.67-.13,0-.67.13-1.21.54-.4.27-.81.27-1.07,0-.94-.54-1.88-.67-2.82-1.07-1.61-.4-2.82-1.88-3.49-3.76-.8-2.42-.8-5.1-.4-7.66.27-1.21.27-2.28.4-3.36.13-.81.27-1.61.4-2.42.27-.54.27-.94.13-1.48-.13,0-.4-.13-.4.13-.13.13-.4.4-.54.67-.54,1.07-1.21,2.15-1.88,3.36-.4.67-.67,1.48-.8,2.42.13.54-.27.94-.4,1.34-1.21,2.28-2.28,4.43-3.09,6.99-.67,1.88-1.61,3.49-2.42,5.38-1.21,2.82-2.69,5.38-3.63,8.33-.27.94-.81,2.01-1.21,3.09-.27.81-3.63,7.26-4.43,7.93,0,.27-.4.4-.67.67-1.61,2.28-3.49,2.15-5.64,1.61-.27.27-.54,0-.81-.27-2.15-.54-3.23-2.55-3.76-5.24-.4-2.28-.4-4.7-.4-6.99.14-3.49.27-6.99.54-10.48.67-3.9.14-3.63,1.21-7.26.94-5.24.4-4.43,2.28-9.67.14-.94.67-1.61.94-2.55.94-2.42,1.75-4.57,2.82-6.72.54-1.75,1.07-2.01,2.42-1.75.94,0,2.15.27,3.36.54.81.13,1.61.4,2.69,1.34.94,1.75,2.28,2.96,3.63,4.57,1.21,2.15,1.48,3.76.67,6.32-.67,2.69-.94.67-1.61,3.49-1.75,5.64-4.97,10.08-6.45,15.18-2.01,6.45,4.17.13,4.7-2.15Z"/>
        <path class="cls-1" d="m127.1,55.26c-.13.94-1.48,4.16-2.15,4.7-.4.13-.54.54-.81.67-.54.67-.94,1.21-1.48,1.75-.27.27-.67.54-.8.94-.4.8-.94,1.21-1.61,1.61-.27.13-.54.27-.67.54-.81.94-1.88,1.75-2.69,2.55-.81.67-1.61,1.07-2.55,1.34-1.21.27-2.28.27-3.36.67-.94.4-2.02.4-3.09.67h-1.21c-1.61-.54-3.23-.8-4.57-1.88-.13-.13-.4-.27-.67-.4-1.21-.54-2.42-1.21-3.22-2.28-1.07.54-2.01,1.07-2.82,1.75-.54.27-.94.54-1.48.94-.13,0-.27.13-.27.13-.81,1.07-1.88,1.21-2.96,1.61-1.88.54-3.76.54-5.51-.4-.67-.4-1.34-.67-2.02-.94-3.9-1.61-6.05-4.57-6.45-8.73-.27-2.15.13-4.17,1.07-6.05.94-1.75,1.88-3.49,3.22-4.97,0-.13.13-.27.27-.4,1.75-2.69,3.9-5.24,5.91-7.66,1.48-1.61,3.09-2.96,5.1-4.16.27-.13.81-.27,1.21-.27.8-.13,1.61-.27,2.55-.27h.4c.81.4,1.88.4,2.82.67.27.13.54.27.81.27.67.13,1.21.13,1.48.67.13.13.27.13.27.13.67,0,1.21.67,1.88.67.27,0,.54.13.67.27.8.81,1.75,1.48,2.28,2.42.13.4.27.67.4,1.07.27,1.21,0,2.01-1.21,2.69-1.21.54-2.28,1.34-3.36,2.15v.13c-1.48,1.48-3.22,2.82-4.43,4.57-.54.67-1.07,1.21-1.61,1.75-1.21,1.34-2.15,2.82-3.22,4.3-.4.67-.94,1.34-1.34,1.88-.27.27-.4.54-.54.81-.81,1.48-1.34,2.96-1.61,4.43-.13.13,0,.27,0,.54.27-.13.4-.27.54-.4,1.34-1.34,2.82-2.69,4.43-3.9.81-.67,1.48-1.34,2.01-2.28.27-.4.67-.81,1.07-1.21.8-.94,1.61-1.88,2.28-2.96.94-1.48,1.88-2.96,2.82-4.57,1.21-.13,2.15,0,2.96.94l.81.81c.94,1.21,1.07,2.55,1.21,3.9,0,.27-.13.4-.27.67-.54,1.21-1.21,2.55-1.88,3.76-.4.94-.54,1.88-.4,2.82.27,1.07.67,2.28,1.21,3.36.27.4.67.67,1.21.67.94-.13,1.88-.27,2.82-.67.81-.4,1.75-.81,2.55-1.34.94-.54,1.88-1.07,2.96-1.75.67-.67,1.48-1.21,2.15-1.88,1.75-1.75,4.43-6.18,6.18-7.93.13-.13.27-.13.4-.27.94.14,1.61.68,2.29,1.35Z"/>
        <path class="cls-1" d="m168.75,56.6c-.4.54-.54,2.55-.67,3.22-.13.4-.94.81-1.21,1.07-.27.81-4.7,1.88-5.11,1.88-1.34.81-4.84-1.61-5.24-1.75,0,0-1.88-1.34-2.01-1.48-.13-.27-2.28-2.15-2.55-2.42-1.21-2.28-1.88-2.96-3.09-5.11-1.21,1.61-.94,1.75-2.01,3.9-1.07,2.02-1.88,4.16-3.23,6.32-.4.27-.54.67-.8.94-.4,1.34-1.21,2.42-2.28,3.49-.81,1.07-1.34,2.15-1.88,3.49,0,.13-.13.54-.13.67.13.94-.4,1.61-.81,2.42-.81.94-1.48,1.88-2.01,3.09-.81,1.88-1.61,3.36-3.49,4.57-.4.54-.94.81-1.61.81-.4,0-.94,0-1.48-.14-.67,0-1.48.14-2.42.27-1.88.81-3.76.27-4.57-1.61-.4-.94-4.57-3.76-5.24-4.43-.94-.94-2.42-4.03-2.15-5.24,0-1.07.27-2.01.4-2.96.54-2.01.81-4.43,1.34-6.58.4-1.61.67-3.23,1.07-4.97.94-3.76,1.61-7.39,2.55-10.88.67-2.15,1.07-4.03,1.48-6.18.13-1.21.13-2.55.54-3.76.13-1.34,0-.81.13-1.88.13-.4.13-.67.4-1.07.4-.27.94-.13,1.34.27.13.27.54.67.67.81.54.67.27.81,1.21.81.27,0,.8.4.8.54.67,1.21,1.75,1.88,2.69,2.69.54,1.07,1.48,1.75,1.61,3.09-.54,0-.8,0-1.34-.13-.27.81-.54,1.34-.13,2.28.67,1.34.67,2.82.81,4.43,0,.67.13,1.34.13,1.75.54,1.61.54,3.36.54,4.97v1.07c.13,1.34.13,2.69.13,4.03-.13,1.07,0,2.15.13,3.09q0,.94-.4,1.88l-.4-.13c-.13-.67-.13-1.21-.27-1.75,0-.13-.27-.27-.4-.4-.13,0-.27-.27-.4,0-.13,0-.27.27-.27.4,0,1.48,0,2.82.13,4.16.13.67.27,1.48.13,2.15-.13.54,0,.94.27,1.21.13,0,.54.13.67,0,.13,0,.27-.27.13-.54-.13-.67.13-1.61.4-2.55l.27-.27c0,.13.13.27.13.54.27.81.27,1.48.27,2.15.13.4.13.54.27.81,0,.27.13.4.13.4-.67.94.13,1.21.27,1.88.27-.13.54-.4.67-.54,2.01-2.42,4.03-4.7,5.78-7.52.67-.94,1.34-1.88,2.01-2.82.94-1.21,1.61-2.55,2.15-4.03.27-.94.8-2.15,1.34-2.96,1.48-3.49,1.75-1.21,2.69-4.3.13-.4-.67-3.49-.81-4.03,0-2.55-.67-2.42.94-2.82.54,0,2.96.54,3.36.81.81.4.13.54,1.07.54.54-.13.94.13,1.34.27.27.13.4.27.54.67,0,.27.13.4.27.81.81,5.24,1.34,6.32,2.82,9.81,1.21.94,2.69,4.57,5.38,4.03,1.34-.4,2.01-.94,3.36-1.21,1.21-.27,2.15-1.75,3.36-2.42.13-.13.27-.13.4-.13.13.27,0,.4-.14.54Zm-39.5-.94l.13.27c0,.13.13,0,.13,0,.13-.4.13-.67.27-.94v-.67c-.13-.13-.27-.27-.4-.13,0,.13-.13.4,0,.4.13.13.27.27.4.4-.13.27-.27.54-.54.67Zm.27,1.21c0-.13-.13-.13-.13-.13-.13,0-.13.13-.13.13,0,.27.13.27.13.4.13-.14.13-.4.13-.4Zm.13,1.21v.13h.13q0-.13-.13-.13Zm.81,13.3c-.13.27-.27.27-.27.4,0,0,0,.13.13.13,0,0,.13-.13.27-.13q-.13-.13-.13-.4Zm.13-1.21c.27-.13.27-.4,0-.54h-.13c0,.13-.13.27-.13.54,0,0,.13,0,.13.27l.13-.27Z"/>
        <path class="cls-1" d="m173.59,54.85c0,.27-.27.54-.54.67-.13.13-.4.27-.4.67-.13.54-.27.67-.67.81-.27.13-.27.27-.4,1.07.27,0,.4,0,.54.13v.13h-.94c.13-.4.13-.81.13-1.07h-.27c-.13.94-.27,1.88-.4,2.82.27.13.4.27.54.27.13.94.13,1.75.13,2.69s.27,1.75.54,2.42c.4.54,1.48,3.49,1.88,4.03,1.88,1.88,4.17,4.3,6.32,4.43.67.13,4.57-.54,5.24-.67,3.23-.94,6.32-2.69,9.27-4.97,2.28-1.75,4.43-3.76,6.72-5.64.14-.13.27-.27.4-.4.8-.94,1.61-1.75,2.42-2.69,1.48-1.48,2.82-2.96,4.03-4.7.4-.67.81-1.34,1.61-1.61-.27,1.21-.54,2.28-1.08,3.36-.14.4-.4.81-.67,1.07-.81.94-1.48,1.75-2.02,2.82-.4.54-.94,1.07-1.34,1.61-.14.13-.27.4-.54.81.4-.13.67-.27,1.08-.4-.14.81-.81.94-.94,1.61.14.13.14.27.4.4-.4.67-.81,1.07-1.34,1.61-.81.67-1.61,1.48-2.28,2.28-1.21,1.34-2.55,2.42-3.9,3.49-.67.54-1.21,1.07-1.88,1.48-.54.4-1.08.67-1.61,1.07-.8.4-1.61.8-2.42,1.34-1.34.81-2.82,1.48-4.3,1.75-.4.13-.81.27-1.21.4-1.61.54-3.22.81-4.84.94-1.88.27-9.81-1.21-11.55-1.88-4.7-1.88-5.64-4.16-7.79-6.05-.8-.67-1.48-1.75-1.88-2.82-.67-1.75-.81-3.63-.94-5.64,0-4.17,1.07-8.2,2.82-11.96q.4-.81.27-2.01c-.67.4-1.07.67-1.34,1.48-.4,1.21-.94,2.28-1.61,3.49,0-1.21.54-2.01.94-2.96,1.07-2.42,2.28-4.7,3.76-6.85,1.48-2.28,3.09-4.3,4.97-6.18,1.88-2.01,3.9-3.76,6.05-5.11.54-.27.94-.4,1.34-.67.67-.27,1.34-.4,1.75.27.4.4.94.27,1.21.54.4.27.54.81.81,1.07,1.34.67,6.45,2.01,7.66,2.82.4.27.67.81.94,1.34.67,1.21,1.21,2.55,2.15,3.36.27.27.4.81.54,1.21.27,1.61.4,3.09,0,4.84-.27,1.88-1.08,3.63-2.02,5.24-.54.94-1.08,1.75-1.48,2.82-.27.94-.81,1.75-1.34,2.69-.54,1.07-1.48,1.75-2.42,2.01-.81.4-1.75.54-2.55.4-.4-.13-.81,0-1.07-.54,0-.13-.13-.13-.13-.13-1.07.13-1.75-1.07-2.55-1.48-.13-.13-.27-.54-.27-.67.27-.54,0-.8-.13-1.21-.54-1.07-1.07-2.28-1.75-3.36-.13-.4-.54-.54-.94-.13-.14.67-.67,1.21-.67,2.02Zm-12.76,12.09c.13.4.27.67.4,1.07,0,.4.4.67.13,1.21-.13-.13-.27-.13-.27-.27-.67-1.34-.94-3.09-1.21-4.84-.13-.13,0-.27,0-.4,0-2.01,0-3.9.54-5.91.13-.4.27-.8.27-1.21v-.94c-.4.81-.67,1.34-.81,1.88-.13.67-.27,1.21-.4,1.88-.54,3.49-.4,6.72,1.07,9.54.27.54.67.94,1.07,1.48.27.27.54.4.94.54,0,.13.13,0,.4,0-.4-.67-.81-1.21-1.07-1.88-.4-.81-.4-1.61-.81-2.28-.13,0-.27.13-.27.13Zm0-8.6c-.67,2.15-.54,4.17-.27,6.18,0,.13.13.13.27.27.13-1.48.27-2.82.4-4.17.13-.94.27-1.88-.13-2.69-.13.13-.27.27-.27.4Zm9.54,3.36v.27-.27Zm7.39-14.11c-.27.4-.67.94-.94,1.48-.54.94-.4,1.61.27,2.01.4.27.94.54,1.21.94.81.94,1.88.81,2.96.67.94-.27,1.61-1.21,2.15-2.15.94-2.28,1.48-2.69,2.28-4.97,2.15-5.11-2.15-3.9-4.17-2.28-1.48,1.07-2.55,2.82-3.76,4.3Z"/>
        <path class="cls-1" d="m244.53,60.9c-.67,1.34-2.96,4.3-2.96,5.78-.13.13-.54.54-.81.67-.4.4-.81.94-1.08,1.61-.27.67-.67.94-.94,1.48-1.88,3.36-3.09,5.24-6.18,8.19-.81.67-7.93,7.52-8.46,8.2-3.9,3.22-9.14,1.75-13.03,1.88-1.08,0-2.15-.13-2.82-.54-1.21-.67-3.9-1.75-4.7-2.96-1.21-2.95-4.3-4.97-4.57-9.14-.13-1.07-.67-1.75-.8-2.82.13-4.3.8-8.6,1.34-13.03.81-3.09,1.48-6.45,2.02-9.54,1.34-5.78,1.75-6.45,4.3-11.69,1.34-3.49,2.55-3.76,3.9-7.26.94-1.88,2.02-3.76,3.09-5.37.8-2.01,2.15-3.9,3.36-5.91,2.55-4.43,5.38-8.33,8.33-11.56,2.02-2.01,4.17-4.17,6.18-5.91,1.21-.94,2.42-2.01,3.63-2.42.4-.27.8-.4,1.21-.54,1.88-.13,3.63.13,4.97,1.48,1.34,1.21,1.75,3.09,1.34,5.64-.27,1.61-.4,3.22-.81,4.7-.13,1.21-.67,2.28-1.34,3.63-.94,2.28-2.02,4.43-3.49,6.58-.94,1.75-2.02,3.49-2.96,5.24-1.61,2.42-2.96,4.97-4.57,7.26-2.82,3.76-5.24,7.79-7.79,11.56-4.17,7.12-3.76,8.33-5.24,15.45-.54,2.82-.27,4.43-.4,7.26.14.81.54,6.05.67,6.58.4,1.88.81,2.55,1.61,4.3.27.54,2.15.94,2.82,1.21.94.67,8.06-4.16,9-4.84,2.15-1.21,3.9-3.22,5.78-5.11,2.02-1.88,2.96-4.03,4.7-6.58,2.42-3.22,3.22-5.91,5.78-9.4,1.88-.26.81,2.56-1.08,5.92Zm-21.5-24.18c4.3-6.85,4.97-7.93,8.87-15.32,1.48-2.82,2.69-5.64,4.17-8.46.67-2.02,1.07-4.03,1.34-6.05.27-.67.27-1.07-.4-.81-.67.13-1.08.4-1.48.67-1.75.67-3.36,2.01-4.57,3.9-.94,1.07-1.61,2.28-2.69,3.36-1.21,1.48-1.88,2.96-2.42,4.7-.67,1.34-1.34,2.96-2.02,4.3-.94,2.82-2.28,5.64-3.63,8.46-.54,1.34-.94,2.82-1.48,4.16-1.61,4.57-.94,2.28-2.42,6.85-.4,1.07-.14,4.17,1.61,2.28,2.02-2.95,3.36-4.97,5.11-8.06Z"/>
      </g>
    </g>
  </g>
</svg>