<?xml version="1.0" encoding="UTF-8"?>
<svg id="Layer_2" data-name="Layer 2" xmlns="http://www.w3.org/2000/svg" viewBox="0 0 226.22 89.04">
  <defs>
    <style>
      .cls-1 {
        fill: #c6d2db;
      }
    </style>
  </defs>
  <g id="Layer_1-2" data-name="Layer 1">
    <g id="object">
      <g>
        <g>
          <path class="cls-1" d="m12.44,59.03c.07.12.16.18.26.19.11.01.22.04.33.09.91.37,1.78.8,2.6,1.28.83.48,1.59,1.05,2.29,1.73.61.61,1.14,1.26,1.61,1.97.46.71.86,1.47,1.19,2.29.35.82.61,1.64.79,2.46.18.83.33,1.68.47,2.57.14,1,.26,2,.35,2.99.09.99.13,2,.11,3.02,0,.84-.11,1.64-.32,2.41-.21.77-.5,1.52-.87,2.24-.98,1.91-2.34,3.5-4.09,4.76-1.68,1.19-3.5,1.83-5.45,1.92-1.75.07-3.42-.16-5-.7-1.1-.37-2.07-.99-2.94-1.85-.12-.12-.22-.23-.32-.35-.09-.12-.23-.21-.42-.28-.05.19-.07.36-.09.51-.01.15-.04.31-.09.47-.02.12-.06.22-.11.3-.05.08-.13.12-.25.12h-.58c-.27,0-.43-.04-.47-.14-.19-.42-.32-.86-.4-1.31-.08-.45-.13-.91-.14-1.38-.01-.47,0-.93.02-1.4.02-.47.03-.93.03-1.4-.02-2-.03-4-.03-5.98s-.01-3.96-.04-5.94c0-1.12-.02-2.23-.07-3.34-.05-1.11-.06-2.22-.04-3.34,0-.82-.02-1.63-.05-2.45-.04-.82-.07-1.63-.09-2.45-.07-2.05-.21-4.07-.42-6.05-.12-.98-.19-1.93-.23-2.87-.03-.93,0-1.89.09-2.87.05-.33.06-.65.05-.96-.01-.31-.02-.63-.02-.96.02-.23.06-.45.11-.66.05-.21.09-.42.14-.63.05-.28.16-.48.33-.61s.39-.21.65-.26c.23-.05.43-.02.58.09.15.11.29.25.4.44.19.26.34.51.45.75.12.24.27.48.46.72.09.09.14.2.14.31v.35c.05.79.09,1.58.14,2.36.05.78.09,1.57.14,2.36.05.82.1,1.63.16,2.43.06.8.14,1.61.26,2.43.19-.33.36-.65.53-.98.16-.33.34-.65.52-.98.54-1.05,1.15-2.03,1.84-2.95.69-.92,1.42-1.81,2.18-2.67.58-.68,1.19-1.31,1.83-1.91.64-.6,1.33-1.12,2.08-1.59,1.07-.7,2.25-1.13,3.53-1.29.84-.11,1.55.15,2.13.8.47.56.77,1.21.91,1.96.07.35.14.7.21,1.05.07.35.13.7.18,1.05.07.68.05,1.34-.07,1.99-.12.65-.29,1.29-.53,1.92-.47,1.33-1.11,2.51-1.94,3.55-.83,1.04-1.79,1.99-2.89,2.85-.28.23-.56.47-.84.7-.28.23-.58.44-.91.63-.09.05-.18.11-.26.17-.08.07-.13.18-.16.32Zm4.93,14.82c.02-1.84-.14-3.72-.49-5.63-.14-.79-.37-1.54-.68-2.26-.31-.71-.78-1.34-1.38-1.9-1.3-1.16-2.76-1.93-4.37-2.31-.4-.09-.8-.15-1.22-.16-.42-.01-.83.05-1.22.19-.42.16-.85.29-1.28.37-.43.08-.87.15-1.31.19-.33.05-.53.1-.6.16s-.14.25-.21.58c-.12.54-.18,1.07-.18,1.59v3.11c0,.5-.01,1.01-.04,1.52-.02.77-.06,1.53-.12,2.29-.06.76-.09,1.51-.09,2.25,0,.61-.02,1.21-.07,1.82s-.1,1.21-.17,1.82c-.07.77.01,1.47.25,2.11.23.64.66,1.21,1.29,1.7,1.07.84,2.18,1.39,3.34,1.66,1.15.27,2.38.17,3.69-.3,1.33-.47,2.39-1.16,3.18-2.1.79-.93,1.3-2.11,1.54-3.53.07-.54.11-1.07.11-1.59,0-.52,0-1.05.03-1.59Zm-1.05-29.05c-1.3.56-2.42,1.32-3.36,2.27-1.4,1.54-2.66,3.15-3.79,4.84s-2.14,3.48-3.02,5.37c-.05.12-.1.25-.16.4-.06.15-.1.34-.12.58.3-.33.61-.59.91-.8.3-.21.59-.42.88-.63.46-.33.93-.66,1.4-1,.47-.34.91-.7,1.33-1.1.44-.42.86-.84,1.26-1.28.39-.43.79-.88,1.19-1.35,1.82-2.05,2.98-4.49,3.49-7.31Z"/>
          <path class="cls-1" d="m55.3,87.45c0,.26-.13.48-.4.68-.27.2-.52.36-.75.47-.19.09-.37.19-.54.28-.18.09-.35.13-.54.1-.54-.05-1.07-.06-1.61-.03-.54.02-1.05-.1-1.54-.39-.51-.26-.96-.59-1.33-1-.37-.41-.69-.88-.94-1.41-.42-.82-.77-1.64-1.05-2.48-.28-.84-.51-1.7-.7-2.59-.21-1.05-.46-2.08-.75-3.08-.29-1-.58-2.02-.86-3.04-.3-1.09-.57-2.2-.79-3.3-.22-1.11-.45-2.22-.68-3.34,0-.04,0-.09-.02-.12-.01-.03-.02-.08-.02-.12-.05-.26-.09-.45-.14-.59-.05-.14-.11-.24-.19-.32-.08-.07-.19-.11-.33-.12-.14-.01-.34-.02-.59-.02-2.19,0-4.38-.1-6.57-.31-.12-.02-.25-.03-.38-.02-.14.01-.32.02-.53.02-.3.02-.53.03-.66.02-.14-.01-.25,0-.33.05-.08.05-.16.15-.23.31-.07.16-.18.43-.32.8-.77,1.89-1.54,3.77-2.32,5.65-.78,1.88-1.56,3.76-2.32,5.65-.28.68-.53,1.36-.75,2.04-.22.69-.46,1.38-.72,2.08-.12.37-.28.71-.47,1.01-.2.3-.46.58-.79.84-.14.12-.28.22-.44.3-.15.08-.32.07-.51-.05-.19-.11-.3-.26-.33-.44-.03-.17-.03-.35.02-.54.26-1,.51-2,.75-2.99.25-.99.53-1.98.86-2.95.82-2.54,1.72-5.04,2.71-7.5.99-2.46,1.93-4.96,2.82-7.5.49-1.45,1.02-2.85,1.59-4.21.57-1.36,1.15-2.74,1.73-4.14.58-1.37,1.15-2.74,1.71-4.09.56-1.35,1.12-2.7,1.68-4.05l.91-2.45c.09-.19.16-.36.21-.52.05-.16.16-.3.35-.42.33-.19.62-.38.89-.59.27-.21.54-.42.82-.63.23-.16.51-.3.84-.42.42-.09.83-.12,1.22-.09.4.03.63.26.7.68.35,1.02.75,2.26,1.19,3.7.39,1.24.85,2.76,1.36,4.58.51,1.82,1.11,3.95,1.78,6.4.33,1.66.66,3.29,1.01,4.91.35,1.62.76,3.23,1.22,4.84.28.98.53,1.97.73,2.97.21,1,.43,2,.66,3.01.68,2.52,1.29,4.8,1.85,6.85.23.89.46,1.75.68,2.6s.42,1.63.59,2.32c.18.7.31,1.29.4,1.78.1.49.14.79.14.91Zm-15.21-37.68c-.56,1.21-1.11,2.38-1.64,3.51-.54,1.13-1.06,2.26-1.57,3.37-1.07,2.26-2.01,4.52-2.8,6.78-.05.14-.09.27-.14.4s-.05.29,0,.47c.54-.05,1.06-.09,1.57-.14s1.03-.07,1.54-.07c.68-.02,1.35-.03,2.03-.02.68.01,1.35.02,2.03.02.42,0,.66-.04.73-.12.07-.08.08-.32.04-.72-.21-1.68-.42-3.35-.63-5.02-.21-1.67-.42-3.34-.63-5.02-.07-.54-.14-1.09-.21-1.66-.07-.57-.17-1.17-.31-1.8Z"/>
          <path class="cls-1" d="m71.52,42.18c1.73.14,3.31.61,4.76,1.42s2.65,2.06,3.6,3.76c.65,1.17.94,2.45.87,3.85,0,.14-.01.24-.03.31-.05.19-.12.36-.21.52-.09.16-.24.27-.45.31-.4.09-.74-.07-1.01-.49-.26-.44-.53-.88-.82-1.29-.29-.42-.59-.85-.89-1.29-.42-.61-.92-1.1-1.5-1.47-.58-.37-1.23-.65-1.92-.84-.4-.12-.77-.12-1.14,0-.36.12-.73.24-1.1.38-.98.4-1.78.97-2.4,1.71-.62.74-1.17,1.55-1.66,2.41-.49.86-.88,1.75-1.17,2.66-.29.91-.53,1.85-.72,2.83-.19.98-.34,1.95-.45,2.92-.12.97-.23,1.94-.35,2.92-.07.61-.12,1.2-.16,1.78-.03.58-.08,1.18-.12,1.78-.02.61-.05,1.21-.07,1.8-.02.59-.03,1.2-.03,1.8-.02,1.23.01,2.46.1,3.67.09,1.21.24,2.42.46,3.64.09.56.19,1.12.28,1.7.09.57.23,1.12.42,1.66.21.65.47,1.27.79,1.84.31.57.75,1.07,1.31,1.48.19.12.37.22.54.31.18.09.35.16.54.21.33.09.63.1.93.03.29-.07.58-.26.86-.56.74-.79,1.35-1.65,1.82-2.57.46-.92.83-1.91,1.08-2.95.28-1.12.49-2.28.63-3.5.05-.3.12-.58.23-.82.1-.24.25-.48.44-.72.23-.26.51-.35.82-.3.31.06.54.24.68.54,0,.05,0,.08.02.09s.02.04.02.09c.02.56.1,1.11.24,1.66.14.55.16,1.11.07,1.7-.12.82-.27,1.63-.47,2.43-.2.8-.46,1.58-.79,2.33-.3.72-.66,1.39-1.08,2.01-.42.62-.87,1.22-1.36,1.8-.26.3-.52.59-.79.86-.27.27-.53.54-.79.82-.47.49-.99.83-1.57,1.03-.58.2-1.19.35-1.82.47-1.16.19-2.25.13-3.27-.16-1.01-.29-2.01-.74-2.99-1.35-1.31-.79-2.28-1.79-2.94-3.01-.65-1.21-1.14-2.53-1.47-3.95-.19-.89-.36-1.77-.52-2.66-.16-.89-.27-1.78-.31-2.69-.12-1.4-.18-2.79-.19-4.18s.03-2.78.12-4.18c.09-1.54.22-3.05.38-4.54.16-1.49.4-2.98.7-4.48.23-1.28.48-2.55.75-3.79.27-1.25.68-2.46,1.24-3.65.61-1.26,1.32-2.4,2.13-3.43.82-1.02,1.79-1.93,2.94-2.73.98-.67,2.03-1.16,3.15-1.45,1.11-.29,2.34-.46,3.67-.51Z"/>
          <path class="cls-1" d="m90.4,63.85c.12.09.22.17.31.24.09.07.19.13.28.17,1.75,1,3.49,2.01,5.23,3.01,1.74,1,3.48,1.99,5.23,2.97,1.19.65,2.38,1.28,3.57,1.89,1.19.61,2.38,1.23,3.57,1.89.56.33,1.1.66,1.63,1,.52.34,1.05.68,1.59,1.03.35.23.69.46,1.01.66.33.21.65.44.98.7.35.28.68.56,1,.84.32.28.64.57.96.87.26.23.51.47.77.72.26.24.51.49.77.75.26.26.31.54.18.84-.07.19-.16.33-.28.42-.12.09-.28.13-.49.1-.58-.05-1.17-.12-1.75-.21-.58-.09-1.14-.28-1.68-.56-.77-.4-1.54-.8-2.32-1.22-.78-.42-1.54-.85-2.29-1.29-1.14-.68-2.27-1.36-3.39-2.06-1.12-.7-2.25-1.39-3.39-2.06-1.19-.7-2.38-1.38-3.57-2.04-1.19-.66-2.38-1.33-3.57-2.01-.98-.53-1.95-1.07-2.9-1.59s-1.92-1.05-2.9-1.59c-.12-.05-.31-.14-.59-.28,0,.19,0,.34-.02.46-.01.12,0,.23.02.35.09.98.18,1.96.26,2.95.08.99.18,1.98.3,2.95.12.98.23,1.96.33,2.94.1.98.22,1.97.33,2.97.05.47.08.93.1,1.38.02.45.06.91.1,1.38.05.7.09,1.4.12,2.1.04.7.05,1.39.05,2.06,0,.3-.03.61-.1.91-.07.3-.16.59-.28.87-.09.28-.26.44-.49.47-.23.03-.48.06-.73.09-.44.05-.79-.13-1.05-.52-.49-.84-.86-1.71-1.12-2.61-.26-.9-.47-1.84-.63-2.81-.21-1.28-.43-2.56-.65-3.83-.22-1.27-.44-2.55-.65-3.83-.16-.95-.3-1.9-.42-2.83-.12-.93-.23-1.88-.35-2.83-.14-1.07-.27-2.14-.38-3.22-.12-1.07-.22-2.14-.31-3.22-.09-.82-.16-1.64-.21-2.48-.05-.84-.09-1.67-.14-2.48-.12-1.4-.21-2.78-.28-4.14-.07-1.36-.15-2.74-.24-4.14-.05-.89-.07-1.78-.07-2.67s.05-1.79.14-2.67c.05-.44.13-.86.26-1.24.13-.39.29-.76.47-1.14.28-.58.69-.69,1.23-.31.26.14.47.32.65.54.18.22.33.46.47.71.3.61.55,1.23.75,1.85.2.63.38,1.28.54,1.96.16.61.31,1.22.44,1.83.13.62.24,1.24.33,1.87.14,1.17.26,2.32.37,3.46.1,1.14.21,2.3.3,3.46.05.61.07,1.21.09,1.8.01.59.04,1.2.09,1.8.05-.02.09-.03.14-.03s.09-.01.14-.03c.98-.68,1.99-1.32,3.02-1.92s2.08-1.2,3.13-1.78c1.1-.61,2.17-1.21,3.22-1.8,1.05-.6,2.12-1.18,3.22-1.77.58-.33,1.18-.64,1.78-.93.61-.29,1.21-.59,1.82-.89.19-.09.39-.17.61-.23.22-.06.44-.11.65-.16.12-.05.24-.06.37-.05.13.01.25.03.37.05.42.12.67.27.75.47.08.2.03.49-.16.89-.21.42-.47.77-.79,1.05-.32.28-.67.54-1.07.77-2.33,1.42-4.65,2.83-6.98,4.23-2.32,1.4-4.64,2.81-6.97,4.23-.12.07-.23.15-.35.23-.12.08-.27.18-.46.3Z"/>
          <path class="cls-1" d="m137.63,60.46l-.42.95c-.35.91-.7,1.81-1.05,2.71s-.7,1.79-1.05,2.67c-.47,1.26-1.18,2.41-2.13,3.46-.4.44-.85.77-1.36.98-.51.21-1.05.36-1.61.46-.12.05-.24.07-.38.07s-.27.01-.38.04c-.88.12-1.66,0-2.32-.35s-1.28-.83-1.84-1.43c-.49-.54-.89-1.11-1.19-1.73s-.56-1.28-.77-1.98c-.19-.56-.31-1.12-.38-1.7-.07-.57-.14-1.16-.21-1.77-.14-1.17-.17-2.31-.09-3.43.08-1.12.16-2.25.23-3.39.07-.84.16-1.68.28-2.52.12-.84.26-1.67.42-2.48.09-.47.22-.92.39-1.36.16-.44.35-.89.56-1.33.09-.14.15-.25.18-.32.04-.19.12-.35.21-.49.09-.14.24-.21.46-.21.26-.02.49-.01.7.03.21.05.41.16.59.35.28.3.5.61.66.93.16.32.22.68.18,1.1,0,.19.01.33.04.42.19,1,.29,2,.31,3.01.02,1,.05,2.01.07,3.01.02,1.56.08,3.11.18,4.63.09,1.53.3,3.06.63,4.6.12.49.26.97.42,1.43.16.47.38.9.66,1.29.12.14.24.28.37.4s.26.27.4.44c.3-.26.58-.51.84-.75.26-.24.46-.53.63-.86.3-.61.59-1.21.88-1.82.28-.61.54-1.22.77-1.85.4-1.03.76-2.04,1.1-3.04.34-1,.69-2.02,1.07-3.04.93-2.45,2.01-4.87,3.25-7.27.16-.33.29-.66.39-1.01.09-.35.17-.7.24-1.05.23-.98.52-1.92.87-2.83.35-.91.74-1.8,1.19-2.69.09-.19.2-.32.33-.4.13-.08.29-.14.47-.19.28-.07.55-.13.82-.17.27-.05.55-.02.86.07.33.12.58.28.77.49.18.21.34.45.45.73.23.51.36,1.02.38,1.54.02.51.01,1.04-.03,1.57-.14,1.56-.28,3.11-.42,4.65-.14,1.54-.27,3.09-.38,4.65-.09,1.28-.22,2.56-.37,3.85-.15,1.28-.32,2.55-.51,3.81-.07.51-.15,1.01-.23,1.5-.08.49-.17.99-.26,1.5-.05.37-.09.75-.14,1.12-.05.37-.09.75-.14,1.12-.16,1-.32,2-.47,2.99-.15.99-.32,1.99-.51,2.99-.12.63-.24,1.26-.38,1.89-.14.63-.28,1.27-.42,1.92-.33,1.4-.82,2.68-1.47,3.84-.65,1.17-1.52,2.23-2.59,3.18-1.45,1.26-3.05,2.21-4.82,2.87-.58.21-1.17.39-1.75.53-.58.14-1.19.22-1.82.24-.93.05-1.83-.02-2.69-.21s-1.69-.55-2.48-1.08c-.12-.07-.24-.13-.38-.19-.14-.06-.27-.12-.38-.19-.46-.28-.9-.59-1.29-.94-.4-.35-.75-.76-1.05-1.22-.54-.74-.99-1.52-1.36-2.32-.37-.8-.6-1.66-.66-2.57-.05-.49-.07-.97-.09-1.45-.01-.48.04-.95.16-1.41.12-.58.32-1.13.61-1.64.29-.51.74-.91,1.35-1.19.26-.12.5-.09.73.07.46.35.71.8.73,1.36,0,.74.12,1.45.37,2.1.24.65.53,1.28.86,1.89.37.7.86,1.26,1.47,1.7.6.43,1.26.73,1.96.89.7.16,1.42.19,2.17.09.74-.1,1.43-.35,2.06-.75,1.49-.93,2.57-2.2,3.25-3.81.19-.37.33-.76.42-1.17.09-.41.19-.81.28-1.21.21-.89.4-1.77.58-2.66.18-.89.35-1.77.54-2.66.21-1.16.41-2.32.6-3.46.19-1.14.38-2.31.59-3.5l.42-2.41c.02-.12.04-.22.05-.31.01-.09.03-.19.05-.28h-.18Z"/>
          <path class="cls-1" d="m178.18,87.45c0,.26-.13.48-.4.68-.27.2-.52.36-.75.47-.19.09-.37.19-.54.28-.18.09-.36.13-.54.1-.54-.05-1.07-.06-1.61-.03-.54.02-1.05-.1-1.54-.39-.51-.26-.96-.59-1.33-1-.37-.41-.69-.88-.94-1.41-.42-.82-.77-1.64-1.05-2.48-.28-.84-.51-1.7-.7-2.59-.21-1.05-.46-2.08-.75-3.08-.29-1-.58-2.02-.86-3.04-.3-1.09-.57-2.2-.79-3.3s-.45-2.22-.68-3.34c0-.04,0-.09-.02-.12-.01-.03-.02-.08-.02-.12-.05-.26-.09-.45-.14-.59-.05-.14-.11-.24-.19-.32-.08-.07-.19-.11-.33-.12-.14-.01-.34-.02-.59-.02-2.19,0-4.38-.1-6.57-.31-.12-.02-.24-.03-.38-.02-.14.01-.32.02-.52.02-.3.02-.52.03-.66.02-.14-.01-.25,0-.33.05-.08.05-.16.15-.23.31-.07.16-.18.43-.32.8-.77,1.89-1.54,3.77-2.32,5.65-.78,1.88-1.56,3.76-2.32,5.65-.28.68-.53,1.36-.75,2.04-.22.69-.46,1.38-.72,2.08-.12.37-.27.71-.47,1.01-.2.3-.46.58-.79.84-.14.12-.29.22-.44.3-.15.08-.32.07-.51-.05-.19-.11-.3-.26-.33-.44-.03-.17-.03-.35.02-.54.26-1,.51-2,.75-2.99.24-.99.53-1.98.86-2.95.82-2.54,1.72-5.04,2.71-7.5.99-2.46,1.93-4.96,2.82-7.5.49-1.45,1.02-2.85,1.59-4.21.57-1.36,1.15-2.74,1.73-4.14.58-1.37,1.15-2.74,1.71-4.09.56-1.35,1.12-2.7,1.68-4.05l.91-2.45c.09-.19.16-.36.21-.52.05-.16.16-.3.35-.42.33-.19.62-.38.89-.59.27-.21.54-.42.82-.63.23-.16.51-.3.84-.42.42-.09.83-.12,1.22-.09.4.03.63.26.7.68.35,1.02.74,2.26,1.19,3.7.4,1.24.85,2.76,1.36,4.58.51,1.82,1.11,3.95,1.78,6.4.33,1.66.66,3.29,1.01,4.91.35,1.62.76,3.23,1.22,4.84.28.98.52,1.97.73,2.97.21,1,.43,2,.66,3.01.68,2.52,1.29,4.8,1.85,6.85.23.89.46,1.75.68,2.6.22.85.42,1.63.6,2.32.18.7.31,1.29.4,1.78.09.49.14.79.14.91Zm-15.21-37.68c-.56,1.21-1.11,2.38-1.64,3.51-.54,1.13-1.06,2.26-1.57,3.37-1.07,2.26-2.01,4.52-2.8,6.78-.05.14-.09.27-.14.4-.05.13-.05.29,0,.47.54-.05,1.06-.09,1.57-.14s1.02-.07,1.54-.07c.68-.02,1.35-.03,2.03-.02.68.01,1.35.02,2.03.02.42,0,.66-.04.73-.12.07-.08.08-.32.04-.72-.21-1.68-.42-3.35-.63-5.02-.21-1.67-.42-3.34-.63-5.02-.07-.54-.14-1.09-.21-1.66-.07-.57-.17-1.17-.31-1.8Z"/>
          <path class="cls-1" d="m183.81,88.64c-.26-.21-.45-.45-.58-.72-.13-.27-.24-.54-.33-.82-.05-.19-.09-.37-.14-.56-.05-.19-.09-.37-.14-.56-.23-.63-.39-1.27-.47-1.91-.08-.64-.17-1.3-.26-1.98-.12-1.12-.24-2.23-.37-3.34-.13-1.11-.25-2.22-.37-3.34-.12-1.05-.23-2.07-.33-3.08-.1-1-.22-2.03-.33-3.08-.23-1.82-.4-3.62-.49-5.42-.09-1.79-.19-3.6-.28-5.42-.16-.3-.21-.6-.14-.89.07-.29.09-.6.07-.93-.02-.61-.05-1.21-.09-1.8-.04-.6-.07-1.2-.09-1.8-.05-.63-.07-1.26-.07-1.9s-.01-1.28-.03-1.91c0-.07.01-.14.03-.23.02-.08.02-.16,0-.23-.14-.54-.08-1,.18-1.4.26-.39.55-.78.88-1.15.07-.09.17-.14.31-.14.28-.02.55-.04.82-.05.27-.01.53,0,.79.05.37.05.7.2.98.45.28.26.45.58.52.98.07.51.13,1.02.19,1.52.06.5.12,1.01.19,1.52,0,.07,0,.14.02.23.01.08.03.18.05.3.54-.68,1.05-1.33,1.55-1.96.5-.63,1.02-1.25,1.56-1.85.74-.84,1.55-1.62,2.39-2.34.85-.72,1.78-1.35,2.78-1.89,1.4-.75,2.84-1.11,4.33-1.08.54.02,1,.14,1.38.37.39.22.68.6.89,1.14.12.28.2.55.24.82.05.27.05.55,0,.86-.07,1.1-.33,2.1-.77,3.01-.44.91-1.03,1.76-1.75,2.55-1.21,1.33-2.53,2.52-3.95,3.57-1.42,1.05-2.92,1.99-4.51,2.83-.19.12-.37.23-.56.33-.19.1-.39.21-.63.33.07.09.13.18.19.26.06.08.13.16.23.23,1.56,1.54,3.04,3.22,4.44,5.03.65.86,1.26,1.75,1.82,2.66.56.91,1.08,1.84,1.57,2.8.61,1.14,1.1,2.31,1.47,3.51.37,1.2.71,2.42,1.01,3.65.23.93.45,1.86.65,2.78.2.92.39,1.85.58,2.78.16.82.27,1.64.31,2.47.05.83,0,1.66-.14,2.5-.05.26-.09.51-.12.75-.04.24-.08.49-.12.75-.12.26-.24.47-.39.63-.14.16-.31.29-.51.38-.2.09-.45.1-.75.04-.7-.7-1.17-1.48-1.4-2.34-.19-.77-.37-1.54-.54-2.32-.17-.78-.33-1.56-.47-2.33-.33-1.77-.7-3.52-1.12-5.26-.42-1.73-.96-3.44-1.61-5.12-.65-1.72-1.43-3.37-2.32-4.95s-1.99-3.03-3.27-4.39c-.3-.33-.6-.66-.89-1-.29-.34-.61-.7-.96-1.1,0,.14,0,.25-.02.33-.01.08-.02.15-.02.19.05.54.09,1.08.14,1.63.05.55.11,1.09.17,1.63.12,1.05.25,2.07.4,3.08.15,1,.3,2.03.44,3.08.19,1.21.37,2.42.56,3.62.19,1.2.35,2.41.49,3.62.12.86.2,1.72.26,2.57.06.85.09,1.71.09,2.57.02.61-.01,1.19-.11,1.75-.09.56-.19,1.13-.28,1.71-.05.33-.1.66-.16,1-.06.34-.15.67-.26,1-.12.3-.36.58-.73.82-.37.24-.72.34-1.05.3-.14-.05-.27-.09-.38-.12-.12-.03-.23-.08-.35-.12-.12-.04-.23-.09-.35-.14Zm.73-33.56s.06.09.11.14c.23-.11.46-.24.68-.38s.45-.27.68-.38c1.14-.68,2.28-1.35,3.41-2.03,1.13-.68,2.22-1.42,3.27-2.24.49-.39.98-.79,1.47-1.17.49-.39.93-.82,1.33-1.31.37-.46.67-.96.89-1.47s.32-1.07.3-1.68c-.02-.26-.08-.42-.16-.51-.08-.08-.25-.08-.51.02-.79.26-1.49.55-2.1.87-1.05.54-2,1.19-2.85,1.96-.85.77-1.64,1.61-2.36,2.52-.68.86-1.33,1.73-1.98,2.59-.64.86-1.28,1.74-1.9,2.62-.07.07-.12.14-.16.23-.03.08-.08.16-.12.23Z"/>
          <path class="cls-1" d="m208.14,50.95c.28-.42.54-.81.79-1.17.24-.36.49-.72.75-1.07.75-1.1,1.6-2.05,2.55-2.87.95-.82,1.99-1.56,3.11-2.24,1.05-.68,2.24-1.18,3.57-1.5,1.42-.33,2.63-.21,3.62.35.99.56,1.82,1.4,2.5,2.52.42.75.71,1.52.88,2.31.16.79.27,1.6.31,2.41.05,1.17-.05,2.3-.28,3.41-.23,1.11-.51,2.22-.84,3.34-.58,1.91-1.24,3.79-1.97,5.63-.73,1.84-1.51,3.67-2.33,5.49-.65,1.47-1.31,2.92-1.96,4.35-.65,1.43-1.34,2.85-2.06,4.25-.63,1.24-1.26,2.45-1.91,3.64-.64,1.19-1.3,2.39-1.97,3.6-.21.4-.41.8-.6,1.21-.19.41-.37.82-.56,1.24-.26.58-.59,1.08-1.01,1.5-.42.42-.9.79-1.43,1.12-.42.26-.85.4-1.28.42-.43.02-.87.07-1.31.14-.16,0-.28-.04-.35-.1-.26-.26-.51-.51-.75-.75s-.44-.55-.58-.93c-.39-1.05-.67-2.11-.84-3.2-.16-1.08-.3-2.19-.42-3.3-.12-1.21-.25-2.41-.4-3.6-.15-1.19-.3-2.39-.44-3.6-.16-1.24-.3-2.47-.42-3.69-.12-1.22-.19-2.47-.21-3.72-.05-1.33-.11-2.63-.19-3.92-.08-1.28-.12-2.59-.12-3.92,0-1.07.01-2.14.04-3.22.02-1.07.09-2.14.21-3.22.05-.47.08-.94.09-1.43.01-.49.04-.98.09-1.47.05-.61.21-1.13.49-1.57s.65-.83,1.12-1.15c.58-.42,1.16-.52,1.73-.31.57.21,1.01.62,1.31,1.22.19.42.36.86.51,1.33.15.47.26.93.33,1.4.05.24.13.6.25,1.09Zm1.57,28.84c.23-.26.41-.51.52-.77.11-.26.23-.49.33-.72.11-.22.21-.45.33-.68.77-1.33,1.5-2.67,2.2-4.04.7-1.36,1.39-2.74,2.06-4.14.4-.79.77-1.58,1.14-2.36s.74-1.58,1.14-2.4c.46-.93.92-1.86,1.36-2.78.44-.92.86-1.87,1.26-2.85.42-.98.82-1.95,1.19-2.9.37-.96.69-1.96.94-3.01.14-.54.28-1.07.42-1.59.14-.52.23-1.07.28-1.63.05-.51.04-1.02-.04-1.52-.07-.5-.23-.98-.49-1.45-.19-.39-.39-.66-.63-.79-.23-.13-.57-.17-1.01-.12-.12.02-.22.04-.31.05-.09.01-.2.04-.32.09-.84.23-1.61.58-2.31,1.03-.7.45-1.38.95-2.03,1.49-1.35,1.14-2.55,2.39-3.6,3.74-1.05,1.35-2.02,2.79-2.9,4.3-.33.58-.58,1.18-.75,1.8-.17.62-.23,1.28-.16,1.97.07.77.12,1.54.14,2.31.02.77.06,1.54.1,2.31.09,1.68.19,3.34.28,5,.09,1.65.21,3.32.35,5,.07.68.13,1.36.17,2.06.05.7.09,1.4.14,2.1,0,.07,0,.15.02.24.01.09.06.17.16.24Z"/>
        </g>
        <g>
          <path class="cls-1" d="m96.05,6.29c-.46-.03-.92-.05-1.36-.05-.44,0-.89-.02-1.34-.05-.76-.03-1.52-.05-2.29-.06-.77-.01-1.54-.03-2.31-.06-.07,0-.13,0-.19-.02-.05-.01-.12,0-.19.02-.32.07-.63.06-.91-.03-.28-.09-.56-.22-.84-.39-.3-.18-.49-.46-.59-.82-.06-.2-.06-.36-.02-.48.04-.13.16-.23.36-.3.24-.1.48-.18.72-.24.24-.06.48-.11.72-.14.72-.06,1.44-.1,2.16-.14.72-.04,1.45-.07,2.18-.1s1.46-.05,2.19-.08c.73-.03,1.46-.06,2.19-.08.37-.01.73-.02,1.09-.01.36,0,.72,0,1.09-.03,1.14-.07,2.27-.08,3.38-.04,1.12.04,2.25.1,3.38.17.42.03.88.04,1.37.02.49-.01.94.05,1.35.19.11.03.19.07.24.14.05.06.15.1.29.12-.01.07-.02.12-.02.16,0,.04,0,.07-.02.1l-.82,1.39c-.17.31-.41.48-.74.53-.49.06-.98.12-1.46.18-.48.06-.96.11-1.43.14-.76.03-1.51.05-2.24.05-.73,0-1.48.02-2.24.03-.04,0-.08,0-.13.01-.04,0-.09.02-.15.03,0,.07,0,.13,0,.19,0,.06,0,.11,0,.17.15.84.25,1.69.3,2.54.04.85.08,1.71.1,2.58.03.76.06,1.51.1,2.25.04.74.07,1.49.1,2.25.04,1.08.09,2.16.14,3.23.05,1.07.09,2.15.12,3.25.03.74.05,1.48.07,2.21.02.73.03,1.48.03,2.24,0,.31-.01.62-.03.92-.02.3-.04.62-.05.94-.01.11-.02.23-.03.36,0,.13,0,.25,0,.38,0,.18-.01.36-.04.52-.03.16-.09.32-.19.48-.13.21-.27.36-.43.44-.16.08-.37.11-.62.06-.45-.07-.82-.24-1.11-.51-.29-.27-.53-.59-.73-.97-.2-.36-.34-.74-.43-1.12s-.17-.77-.24-1.16c-.11-.7-.19-1.4-.22-2.09-.04-.69-.05-1.38-.03-2.09,0-.24,0-.47-.02-.69-.01-.22-.03-.45-.04-.68l-.13-2.91c-.07-1.31-.13-2.6-.19-3.89-.06-1.29-.1-2.58-.15-3.89-.04-1.62.06-3.22.32-4.81.01-.04.02-.09.01-.14,0-.05-.01-.11-.01-.18Z"/>
          <path class="cls-1" d="m113.57,24.62c.03-.28.06-.56.1-.84.04-.28.08-.56.1-.84.07-.55.13-1.1.18-1.65.05-.55.12-1.1.2-1.65.1-.58.2-1.15.31-1.72s.23-1.14.37-1.72c.15-.62.34-1.22.56-1.81s.49-1.16.81-1.71c.21-.35.43-.69.64-1.02.22-.33.49-.63.81-.9.11-.1.23-.19.35-.29.12-.09.24-.17.37-.24.15-.1.32-.15.49-.16.17,0,.34.01.53.05.31.07.6.18.88.33.27.15.54.31.79.49.11.06.18.11.19.15.15.27.31.53.45.78.15.25.26.52.35.8.11.36.2.73.26,1.1.06.37.13.74.2,1.12.04.21.07.43.07.65,0,.23.04.44.1.65.11.46.14.93.09,1.4-.05.47-.04.94.03,1.4.03.08.03.17,0,.26-.02.09-.03.19-.03.28.01.32.02.65.03.99s.02.67.05.99c.04.54.09,1.08.15,1.62.06.55.11,1.09.17,1.62.04.54.08,1.07.12,1.61.04.54.09,1.08.16,1.61.03.2.08.39.15.57.07.18.13.37.19.57.04.15.06.32.06.51,0,.17-.02.33-.05.5-.04.16-.09.32-.16.47-.13.35-.37.48-.72.4-1.07-.28-1.84-.89-2.3-1.83-.42-.84-.75-1.71-.98-2.6s-.39-1.8-.48-2.73c-.11-1.14-.19-2.28-.22-3.42-.03-1.14-.02-2.28.05-3.42.04-.66.04-1.32.01-1.97-.04-.65-.07-1.31-.1-1.97,0-.06,0-.11-.03-.16-.02-.05-.05-.13-.07-.24-.13.2-.24.38-.35.55-.1.17-.19.33-.26.48-.3.62-.56,1.24-.79,1.87s-.42,1.28-.56,1.95c-.04.24-.1.48-.17.72-.07.24-.13.48-.19.72-.07.28-.13.57-.18.86-.05.3-.1.58-.16.86-.15.72-.28,1.43-.38,2.15-.11.66-.21,1.32-.29,1.97-.08.65-.16,1.31-.26,1.97-.06.38-.12.75-.2,1.12-.08.37-.19.73-.33,1.1-.13.34-.31.63-.55.88s-.49.48-.74.71c-.15.14-.33.26-.52.37-.19.11-.38.21-.58.31-.27.13-.49.16-.66.1-.18-.06-.35-.21-.52-.45-.2-.29-.37-.6-.51-.93-.14-.32-.24-.66-.29-1.01-.07-.45-.13-.89-.17-1.33-.04-.44-.09-.88-.15-1.33-.03-.31-.06-.62-.1-.93-.04-.31-.08-.62-.13-.93-.13-1.04-.24-2.07-.33-3.1-.09-1.03-.14-2.07-.16-3.12-.03-1.67-.05-3.34-.06-5-.01-1.66-.03-3.33-.04-5-.01-1.2-.01-2.38,0-3.56s.02-2.37.02-3.56c0-.27.08-.51.24-.72.16-.21.39-.34.69-.38.42-.04.79.05,1.12.29.25.17.44.37.56.61.12.24.21.5.28.78.13.52.2,1.04.22,1.56.02.52.04,1.04.07,1.56.01.48.04.95.06,1.41.03.46.06.93.09,1.39.01.27.02.53.02.79s0,.52.02.79c.01.25.03.51.03.76s.02.51.05.76c.03.43.06.87.09,1.3.04.43.07.86.12,1.3.07.59.1,1.17.07,1.75-.02.58-.05,1.16-.07,1.75-.01.24,0,.48.02.72.03.24.06.48.08.72.01.27.03.54.04.8.01.27.03.54.06.82.03.38.05.76.06,1.14.01.38.03.77.06,1.16.03.35.05.7.07,1.03.02.34.04.68.07,1.03.01.07.03.14.04.2.01.06.03.13.04.2.04,0,.08,0,.11-.02Z"/>
          <path class="cls-1" d="m139.89,22.85c-.27.59-.54,1.17-.81,1.75-.27.58-.57,1.15-.88,1.73-.28.55-.6,1.07-.96,1.57-.36.5-.74.98-1.15,1.45-.62.73-1.32,1.28-2.1,1.65-.78.37-1.68.5-2.69.39-1.05-.11-1.95-.44-2.7-.99-.74-.55-1.36-1.29-1.86-2.21-.34-.67-.6-1.36-.79-2.06-.19-.7-.32-1.42-.39-2.16-.07-.58-.1-1.14-.09-1.71,0-.56.02-1.13.05-1.71.03-.59.09-1.17.19-1.75.1-.58.23-1.15.4-1.73.24-.84.53-1.66.88-2.45.34-.79.8-1.52,1.36-2.21.34-.42.71-.8,1.12-1.13.41-.33.85-.62,1.33-.88.41-.21.83-.38,1.25-.52.43-.13.87-.21,1.32-.24.51-.03,1.01,0,1.5.08s.96.29,1.41.61c.11.08.23.17.35.24.12.08.24.15.37.22.43.28.81.62,1.13,1.01.32.39.61.82.88,1.27.27.45.44.93.51,1.43.07.51.06,1.03-.04,1.56-.34,1.74-1.16,3.24-2.47,4.49-.38.37-.77.72-1.16,1.07s-.81.66-1.24.96c-.62.41-1.26.74-1.93.99-.67.25-1.38.39-2.14.42-.01,0-.08.01-.19.04.1.61.24,1.17.44,1.71.2.54.49,1.03.87,1.48.32.37.69.64,1.09.82.4.18.84.29,1.32.32.2.01.37-.02.52-.12.15-.09.3-.19.45-.31.32-.28.62-.59.88-.92.27-.33.51-.68.74-1.04.32-.49.62-.99.89-1.5.27-.51.51-1.02.72-1.56.11-.25.24-.47.39-.64.15-.18.36-.29.64-.33.17.01.32.06.44.13.1.07.18.17.23.28.06.12.03.28-.06.47Zm-9.74-.02c.18-.03.35-.05.5-.06.15-.01.29-.04.43-.08.49-.11.96-.28,1.4-.5.44-.22.86-.47,1.26-.77.32-.24.63-.48.93-.73.29-.25.58-.5.87-.77.59-.53,1.05-1.14,1.39-1.81.34-.68.57-1.4.7-2.17.07-.35.07-.68,0-1-.07-.32-.23-.61-.46-.9-.45-.54-.98-.88-1.59-1.04-.61-.16-1.23-.09-1.87.22-.55.27-1.02.61-1.42,1.04-.4.43-.73.91-1,1.44-.45.9-.77,1.86-.97,2.89-.11.55-.19,1.1-.24,1.65-.05.55-.06,1.1-.03,1.67.01.15.03.31.05.45.02.15.04.3.07.47Z"/>
        </g>
      </g>
    </g>
  </g>
</svg>