<?xml version="1.0" encoding="UTF-8"?>
<svg id="Layer_2" data-name="Layer 2" xmlns="http://www.w3.org/2000/svg" viewBox="0 0 225.82 60.63">
  <defs>
    <style>
      .cls-1 {
        fill: #c6d2db;
      }
    </style>
  </defs>
  <g id="Layer_1-2" data-name="Layer 1">
    <g id="object">
      <g>
        <g>
          <path class="cls-1" d="m10.31,10.97v4.94c2.13-3.54,5.52-5.3,10.19-5.3,3.86,0,6.98,1.29,9.37,3.86,2.39,2.57,3.59,6.07,3.59,10.49v19.65h-10.25v-18.27c0-2.17-.57-3.85-1.72-5.03-1.14-1.18-2.72-1.78-4.73-1.78s-3.59.59-4.73,1.78c-1.14,1.19-1.72,2.86-1.72,5.03v18.27H0V10.97h10.31Z"/>
          <path class="cls-1" d="m43.58,40.21c-2.98-3.22-4.46-7.33-4.46-12.36s1.49-9.15,4.46-12.39c2.97-3.23,6.6-4.85,10.88-4.85s7.57,1.59,9.86,4.76v-4.4h10.31v33.64h-10.31v-4.88c-2.49,3.54-5.83,5.3-10.01,5.3-4.18,0-7.76-1.61-10.73-4.82Zm18.51-6.27c1.49-1.45,2.23-3.5,2.23-6.15s-.74-4.69-2.23-6.12c-1.49-1.43-3.2-2.14-5.12-2.14s-3.64.72-5.12,2.17c-1.49,1.45-2.23,3.5-2.23,6.15s.74,4.69,2.23,6.12c1.49,1.43,3.2,2.14,5.12,2.14s3.64-.72,5.12-2.17Z"/>
          <path class="cls-1" d="m97.36,35.87h3.68v8.74h-5.24c-3.78,0-6.7-.83-8.77-2.5-2.07-1.67-3.1-4.53-3.1-8.59v-13.99h-3.14v-8.56h3.14V2.77h10.31v8.2h6.75v8.56h-6.75v13.99c0,1.57,1.04,2.35,3.13,2.35Z"/>
          <path class="cls-1" d="m130.33,10.97h10.31v33.64h-10.31v-4.94c-2.13,3.54-5.53,5.3-10.19,5.3-3.86,0-6.98-1.29-9.37-3.86-2.39-2.57-3.59-6.07-3.59-10.49V10.97h10.25v18.26c0,2.17.57,3.85,1.72,5.03,1.15,1.19,2.72,1.78,4.73,1.78s3.59-.59,4.73-1.78c1.15-1.18,1.72-2.86,1.72-5.03V10.97h0Z"/>
          <path class="cls-1" d="m159.38,10.97v6.27c2.41-4.42,5.63-6.63,9.65-6.63v10.49h-2.53c-2.37,0-4.15.56-5.34,1.69-1.19,1.13-1.78,3.09-1.78,5.91v15.91h-10.31V10.97h10.31Z"/>
          <path class="cls-1" d="m176.02,40.21c-2.97-3.22-4.46-7.33-4.46-12.36s1.49-9.15,4.46-12.39c2.97-3.23,6.6-4.85,10.88-4.85s7.57,1.59,9.85,4.76v-4.4h10.31v33.64h-10.31v-4.88c-2.49,3.54-5.83,5.3-10.01,5.3-4.18,0-7.76-1.61-10.73-4.82Zm18.51-6.27c1.49-1.45,2.23-3.5,2.23-6.15s-.74-4.69-2.23-6.12c-1.49-1.43-3.2-2.14-5.12-2.14s-3.64.72-5.12,2.17c-1.49,1.45-2.23,3.5-2.23,6.15s.74,4.69,2.23,6.12c1.49,1.43,3.19,2.14,5.12,2.14s3.64-.72,5.12-2.17Z"/>
          <path class="cls-1" d="m215.51,44.61V0h10.31v44.61h-10.31Z"/>
        </g>
        <g>
          <path class="cls-1" d="m11.11,50.5v10.12h-1.66v-6.93l-3.09,6.93h-1.15l-3.1-6.93v6.93H.45v-10.12h1.79l3.55,7.93,3.54-7.93h1.78Z"/>
          <path class="cls-1" d="m22.61,60.62v-10.12h1.66v10.12h-1.66Z"/>
          <path class="cls-1" d="m42.42,50.48h1.66v10.13h-1.66l-4.99-7.55v7.55h-1.66v-10.13h1.66l4.99,7.54v-7.54Z"/>
          <path class="cls-1" d="m61.17,50.48v1.3h-3.93v3.07h3.49v1.28h-3.49v3.19h3.93v1.3h-5.59v-10.13h5.59Z"/>
          <path class="cls-1" d="m74.18,56.51v4.1h-1.66v-10.12h3.49c1.14,0,2.03.28,2.65.85.62.57.93,1.29.93,2.16,0,.68-.21,1.29-.62,1.83-.41.54-1.05.9-1.9,1.06l2.68,4.21h-2.02l-2.53-4.1h-1.02Zm0-4.72v3.42h1.83c.63,0,1.1-.15,1.41-.45.31-.3.46-.72.46-1.26s-.15-.96-.46-1.26c-.31-.3-.78-.45-1.41-.45h-1.83Z"/>
          <path class="cls-1" d="m97.87,60.62l-.73-2.07h-4.24l-.73,2.07h-1.73l3.62-10.13h1.92l3.62,10.13h-1.75Zm-4.51-3.36h3.33l-1.66-4.76-1.67,4.76Z"/>
          <path class="cls-1" d="m110.5,50.5h1.66v8.85h3.42v1.27h-5.08v-10.12h0Z"/>
          <path class="cls-1" d="m151.36,50.5h1.78l-3,10.12h-1.88l-2.12-7.66-2.26,7.66h-1.86s-2.87-10.12-2.87-10.12h1.76l2.1,8.24,2.27-8.24h1.86l2.11,8.2,2.11-8.2Z"/>
          <path class="cls-1" d="m170.65,60.62l-.73-2.07h-4.24l-.73,2.07h-1.73l3.62-10.13h1.92l3.62,10.13h-1.75Zm-4.51-3.36h3.33l-1.66-4.76-1.67,4.76Z"/>
          <path class="cls-1" d="m182.76,51.79v-1.29h7.06v1.29h-2.69v8.82h-1.66v-8.82h-2.71Z"/>
          <path class="cls-1" d="m206.4,50.48v1.3h-3.93v3.07h3.49v1.28h-3.49v3.19h3.93v1.3h-5.59v-10.13h5.59Z"/>
          <path class="cls-1" d="m219.42,56.51v4.1h-1.66v-10.12h3.49c1.15,0,2.03.28,2.65.85.62.57.93,1.29.93,2.16,0,.68-.21,1.29-.62,1.83-.41.54-1.05.9-1.9,1.06l2.68,4.21h-2.02l-2.53-4.1h-1.02Zm0-4.72v3.42h1.84c.63,0,1.1-.15,1.41-.45.31-.3.47-.72.47-1.26s-.16-.96-.47-1.26c-.31-.3-.78-.45-1.41-.45h-1.84Z"/>
        </g>
      </g>
    </g>
  </g>
</svg>