<?xml version="1.0" encoding="UTF-8"?>
<svg id="Layer_2" data-name="Layer 2" xmlns="http://www.w3.org/2000/svg" xmlns:xlink="http://www.w3.org/1999/xlink" viewBox="0 0 551.97 495.47">
  <defs>
    <style>
      .cls-1 {
        fill: #f6dcfd;
      }

      .cls-1, .cls-2, .cls-3 {
        fill-rule: evenodd;
      }

      .cls-4 {
        fill: url(#linear-gradient-2);
      }

      .cls-5 {
        fill: url(#linear-gradient-17);
      }

      .cls-6 {
        mask: url(#mask-10);
      }

      .cls-7 {
        fill: url(#linear-gradient-15);
      }

      .cls-8 {
        fill: url(#linear-gradient-18);
      }

      .cls-9 {
        fill: url(#linear-gradient-14);
      }

      .cls-10 {
        mask: url(#mask-2);
      }

      .cls-11 {
        fill: url(#linear-gradient-6);
      }

      .cls-12 {
        clip-path: url(#clippath-2);
      }

      .cls-13 {
        mask: url(#mask-3);
      }

      .cls-14 {
        fill: url(#linear-gradient-11);
      }

      .cls-2 {
        fill: #1e003d;
      }

      .cls-15 {
        mask: url(#mask-9);
      }

      .cls-16 {
        clip-path: url(#clippath-1);
      }

      .cls-17 {
        clip-path: url(#clippath-4);
      }

      .cls-18 {
        fill: url(#linear-gradient-10);
      }

      .cls-19 {
        mask: url(#mask-5);
      }

      .cls-20 {
        fill: url(#linear-gradient-16);
      }

      .cls-3 {
        fill: #00b286;
      }

      .cls-21 {
        mask: url(#mask-8);
      }

      .cls-22 {
        mask: url(#mask-4);
      }

      .cls-23 {
        fill: url(#linear-gradient-5);
      }

      .cls-24 {
        clip-path: url(#clippath);
      }

      .cls-25 {
        clip-rule: evenodd;
        fill: none;
      }

      .cls-26 {
        mask: url(#mask-6);
      }

      .cls-27 {
        clip-path: url(#clippath-3);
      }

      .cls-28 {
        fill: url(#linear-gradient-7);
      }

      .cls-29 {
        fill: url(#linear-gradient-9);
      }

      .cls-30 {
        mask: url(#mask-1);
      }

      .cls-31 {
        mask: url(#mask);
      }

      .cls-32 {
        fill: url(#linear-gradient-3);
      }

      .cls-33 {
        clip-path: url(#clippath-5);
      }

      .cls-34 {
        fill: url(#linear-gradient);
      }

      .cls-35 {
        mask: url(#mask-7);
      }

      .cls-36 {
        fill: url(#linear-gradient-4);
      }

      .cls-37 {
        mask: url(#mask-11);
      }

      .cls-38 {
        fill: url(#linear-gradient-8);
      }

      .cls-39 {
        fill: url(#linear-gradient-12);
      }

      .cls-40 {
        fill: url(#linear-gradient-13);
      }
    </style>
    <clipPath id="clippath">
      <path class="cls-25" d="m174.28,187.94c14.07-24.37,21.06-39.04,27.55-47.8L129.27,14.45c-46.18,140.47,17.99,246.64,17.99,246.64-4.66-10.09-4.66-16.62,0-26.71,4.56-9.86,13.56-23.12,27.02-46.44"/>
    </clipPath>
    <linearGradient id="linear-gradient" x1="89.6" y1="216.73" x2="281.95" y2="-70.59" gradientUnits="userSpaceOnUse">
      <stop offset="0" stop-color="#53f"/>
      <stop offset="1" stop-color="#0dcaf0"/>
    </linearGradient>
    <linearGradient id="linear-gradient-2" x1="-556.57" y1="1108.22" x2="-188.51" y2="766.27" gradientTransform="translate(440.77 -677.38)" gradientUnits="userSpaceOnUse">
      <stop offset="0" stop-color="#fff"/>
      <stop offset="1" stop-color="#000"/>
    </linearGradient>
    <mask id="mask" x="116.76" y="89.43" width="85.08" height="171.66" maskUnits="userSpaceOnUse">
      <rect class="cls-4" x="116.76" y="89.43" width="85.08" height="171.66"/>
    </mask>
    <linearGradient id="linear-gradient-3" x1="-542.18" y1="406.13" x2="-180.05" y2="1022.34" gradientTransform="translate(436.57 -677.38)" xlink:href="#linear-gradient-2"/>
    <mask id="mask-1" x="112.55" y="14.45" width="44.41" height="246.64" maskUnits="userSpaceOnUse">
      <rect class="cls-32" x="112.55" y="14.45" width="44.41" height="246.64"/>
    </mask>
    <clipPath id="clippath-1">
      <path class="cls-25" d="m129.27,14.45c-16.68,16.02-30.41,47.7-66.02,109.38C28.33,184.31,7.87,212.15,1.87,234.38c-2.49,9.23-2.49,17.49,0,26.71,6,22.23,26.46,50.07,61.38,110.54,35.61,61.68,49.34,93.37,66.02,109.38l72.57-125.69c-6.49-8.76-13.48-23.43-27.55-47.8-13.46-23.31-22.47-36.57-27.02-46.44,0,0-64.17-106.17-17.99-246.64"/>
    </clipPath>
    <linearGradient id="linear-gradient-4" x1="190.65" y1="403.68" x2="13.01" y2="96.01" gradientUnits="userSpaceOnUse">
      <stop offset="0" stop-color="#53f"/>
      <stop offset="1" stop-color="#0dcaf0"/>
    </linearGradient>
    <linearGradient id="linear-gradient-5" x1="-399.71" y1="719.84" x2="-206.18" y2="702.03" gradientTransform="translate(324.01 -457.45)" xlink:href="#linear-gradient-2"/>
    <mask id="mask-2" x="0" y="14.45" width="167.17" height="466.57" maskUnits="userSpaceOnUse">
      <rect class="cls-23" x="0" y="14.45" width="167.17" height="466.57"/>
    </mask>
    <linearGradient id="linear-gradient-6" x1="-268.35" y1="487.18" x2="-197.57" y2="828.15" gradientTransform="translate(324.01 -457.45)" gradientUnits="userSpaceOnUse">
      <stop offset="0" stop-color="#000"/>
      <stop offset=".36" stop-color="#919191"/>
      <stop offset="1" stop-color="#000"/>
    </linearGradient>
    <mask id="mask-3" x="0" y="14.45" width="201.84" height="466.57" maskUnits="userSpaceOnUse">
      <rect class="cls-11" x="0" y="14.45" width="201.84" height="466.57"/>
    </mask>
    <clipPath id="clippath-2">
      <path class="cls-25" d="m379.22,189.21c14.07,24.37,23.28,37.76,27.62,47.76h145.14c-98.56-110.23-222.59-107.74-222.59-107.74,11.07,1.01,16.73,4.27,23.13,13.36,6.26,8.88,13.24,23.31,26.7,46.62"/>
    </clipPath>
    <linearGradient id="linear-gradient-7" x1="400.25" y1="99.7" x2="552.91" y2="409.94" xlink:href="#linear-gradient"/>
    <linearGradient id="linear-gradient-8" x1="-339.89" y1="518.14" x2="-227.79" y2="1007.86" gradientTransform="translate(653.39 -701.5)" xlink:href="#linear-gradient-2"/>
    <mask id="mask-4" x="329.38" y="129.23" width="136.02" height="107.74" maskUnits="userSpaceOnUse">
      <rect class="cls-38" x="329.38" y="129.23" width="136.02" height="107.74"/>
    </mask>
    <linearGradient id="linear-gradient-9" x1="263.46" y1="880.93" x2="-451.25" y2="886.44" gradientTransform="translate(653.39 -701.5)" xlink:href="#linear-gradient-2"/>
    <mask id="mask-5" x="329.38" y="129.23" width="222.6" height="107.74" maskUnits="userSpaceOnUse">
      <rect class="cls-29" x="329.38" y="129.23" width="222.6" height="107.74"/>
    </mask>
    <clipPath id="clippath-3">
      <path class="cls-25" d="m551.97,236.97c-5.53-22.46-26.1-50.19-61.72-111.87-34.92-60.48-48.8-92.11-65.05-108.42-6.75-6.77-13.9-10.9-23.13-13.36-22.25-5.92-56.59-2.12-126.42-2.12-71.23,0-105.53-3.95-127.74,2.49l72.57,125.69c10.83-1.24,27.03.04,55.17.04s42.91-1.17,53.73-.18c0,0,124.03-2.49,222.59,107.74"/>
    </clipPath>
    <linearGradient id="linear-gradient-10" x1="184.2" y1="117.11" x2="539.47" y2="117.11" xlink:href="#linear-gradient-4"/>
    <linearGradient id="linear-gradient-11" x1="-36.7" y1="634.92" x2="-118.04" y2="811.43" gradientTransform="translate(471.92 -701.5)" xlink:href="#linear-gradient-2"/>
    <mask id="mask-6" x="147.91" y="0" width="404.06" height="236.97" maskUnits="userSpaceOnUse">
      <rect class="cls-14" x="147.91" y="0" width="404.06" height="236.97"/>
    </mask>
    <linearGradient id="linear-gradient-12" x1="95.46" y1="891.79" x2="-235.22" y2="782.6" gradientTransform="translate(471.92 -701.5)" xlink:href="#linear-gradient-6"/>
    <mask id="mask-7" x="147.91" y="0" width="404.06" height="236.97" maskUnits="userSpaceOnUse">
      <rect class="cls-39" x="147.91" y="0" width="404.06" height="236.97"/>
    </mask>
    <clipPath id="clippath-4">
      <path class="cls-25" d="m275.65,366.05c-28.14,0-44.34,1.28-55.17.04l-72.57,125.69c144.74-30.24,204.6-138.9,204.6-138.9-6.41,9.08-12.06,12.35-23.13,13.36-10.82.98-26.81-.18-53.73-.18"/>
    </clipPath>
    <linearGradient id="linear-gradient-13" x1="342.68" y1="428.47" x2="-2.32" y2="405.56" xlink:href="#linear-gradient"/>
    <linearGradient id="linear-gradient-14" x1="114.77" y1="1012.52" x2="-365.39" y2="864.74" gradientTransform="translate(515.21 -513.24)" xlink:href="#linear-gradient-2"/>
    <mask id="mask-8" x="191.2" y="352.88" width="161.31" height="72.35" maskUnits="userSpaceOnUse">
      <rect class="cls-9" x="191.2" y="352.88" width="161.31" height="72.35"/>
    </mask>
    <linearGradient id="linear-gradient-15" x1="-456.63" y1="1283.24" x2="-104.04" y2="661.53" gradientTransform="translate(471.92 -446.69)" xlink:href="#linear-gradient-2"/>
    <mask id="mask-9" x="147.91" y="352.88" width="204.6" height="138.9" maskUnits="userSpaceOnUse">
      <rect class="cls-7" x="147.91" y="352.88" width="204.6" height="138.9"/>
    </mask>
    <clipPath id="clippath-5">
      <path class="cls-25" d="m147.91,491.78c22.21,6.44,56.51,2.49,127.74,2.49s104.17,3.8,126.42-2.12c9.24-2.46,16.39-6.59,23.13-13.36,16.25-16.31,30.13-47.95,65.05-108.42,35.61-61.68,56.19-89.41,61.72-111.87h-145.14c-4.34,10-13.55,23.39-27.62,47.76-13.46,23.31-20.44,37.74-26.7,46.62,0,0-59.86,108.66-204.6,138.9"/>
    </clipPath>
    <linearGradient id="linear-gradient-16" x1="434.21" y1="232.41" x2="256.57" y2="540.08" gradientUnits="userSpaceOnUse">
      <stop offset="0" stop-color="#53f"/>
      <stop offset="1" stop-color="#0dcaf0"/>
    </linearGradient>
    <linearGradient id="linear-gradient-17" x1="-4.26" y1="986.51" x2="-116.45" y2="827.81" gradientTransform="translate(471.92 -443)" xlink:href="#linear-gradient-2"/>
    <mask id="mask-10" x="147.91" y="258.5" width="404.06" height="236.97" maskUnits="userSpaceOnUse">
      <rect class="cls-5" x="147.91" y="258.5" width="404.06" height="236.97"/>
    </mask>
    <linearGradient id="linear-gradient-18" x1="-291.54" y1="971.2" x2="-31.64" y2="739.42" gradientTransform="translate(471.92 -443)" xlink:href="#linear-gradient-6"/>
    <mask id="mask-11" x="147.91" y="258.5" width="404.06" height="236.97" maskUnits="userSpaceOnUse">
      <rect class="cls-8" x="147.91" y="258.5" width="404.06" height="236.97"/>
    </mask>
  </defs>
  <g id="Layer_1-2" data-name="Layer 1">
    <g>
      <g class="cls-24">
        <rect class="cls-34" x="83.09" y="14.45" width="118.75" height="246.64"/>
      </g>
      <g class="cls-31">
        <path class="cls-2" d="m174.28,187.94c14.07-24.37,21.06-39.04,27.55-47.8l-29.28-50.72-55.8,79.79c9.24,56.67,30.5,91.87,30.5,91.87-4.66-10.09-4.66-16.62,0-26.71,4.56-9.86,13.56-23.12,27.02-46.44"/>
      </g>
      <g class="cls-30">
        <path class="cls-2" d="m129.27,14.45c-46.18,140.47,17.99,246.64,17.99,246.64-4.66-10.09-4.66-16.62,0-26.71,2.2-4.76,5.43-10.31,9.7-17.39C102.42,127.11,129.27,14.45,129.27,14.45"/>
      </g>
      <g class="cls-16">
        <rect class="cls-36" x="-.62" y="14.45" width="202.46" height="466.57"/>
      </g>
      <g class="cls-10">
        <path class="cls-3" d="m121.02,337.74c-59.62-103.26-61.21-75.54-4.78-171.8-6.29-41.26-6.05-93.45,13.03-151.5-16.68,16.02-30.41,47.7-66.02,109.38C28.33,184.31,7.87,212.15,1.87,234.38c-2.49,9.23-2.49,17.49,0,26.71,6,22.23,26.46,50.07,61.38,110.54,35.61,61.68,49.34,93.37,66.02,109.38l37.9-65.65c-11.35-12.16-21.58-35.06-46.16-77.63"/>
      </g>
      <g class="cls-13">
        <path class="cls-1" d="m125.84,20.27c-2.78,3.23-5.31,6.7-7.67,10.19-4.85,7.17-9.24,14.76-13.5,22.29-5.8,10.26-11.42,20.62-17.11,30.94-7.55,13.7-15.19,27.34-23.01,40.89-7.69,13.32-15.54,26.52-23.49,39.69-6.02,9.97-12.12,19.91-18.05,29.94-4.39,7.42-8.75,14.96-12.58,22.69-2.83,5.71-5.44,11.71-7.11,17.87-2.41,8.94-2.41,16.99,0,25.93,1.66,6.16,4.28,12.16,7.11,17.87,3.83,7.73,8.19,15.27,12.58,22.69,5.93,10.03,12.02,19.97,18.05,29.94,7.95,13.16,15.8,26.37,23.49,39.69,7.82,13.55,15.46,27.19,23.01,40.89,5.69,10.32,11.31,20.68,17.11,30.94,4.26,7.54,8.65,15.12,13.5,22.29,3.22,4.75,6.74,9.46,10.78,13.58l71.11-123.16c-1.63-2.27-3.13-4.66-4.56-7.06-2.04-3.41-3.97-6.88-5.89-10.35-5.5-9.94-10.92-19.89-16.61-29.73-5.48-9.5-11.17-18.85-16.84-28.24-2.01-3.34-4.02-6.68-5.94-10.07-1.51-2.67-2.98-5.39-4.27-8.17-.99-1.65-1.92-3.39-2.82-5.09-2.43-4.63-4.67-9.37-6.76-14.16-7.29-16.71-12.95-34.33-17.07-52.08-5.95-25.65-8.73-52.03-8.26-78.36.55-31.22,5.64-62.03,14.82-91.83m3.43-5.82c-16.68,16.02-30.41,47.7-66.02,109.38C28.33,184.31,7.87,212.15,1.87,234.38c-2.49,9.23-2.49,17.49,0,26.71,6,22.23,26.46,50.07,61.38,110.54,35.61,61.68,49.34,93.37,66.02,109.38l72.57-125.69c-6.49-8.76-13.48-23.43-27.55-47.8-13.46-23.31-22.47-36.57-27.02-46.44,0,0-64.17-106.17-17.99-246.64Z"/>
      </g>
      <g class="cls-12">
        <rect class="cls-28" x="329.38" y="126.74" width="222.59" height="110.23"/>
      </g>
      <g class="cls-22">
        <path class="cls-2" d="m379.22,189.21c14.07,24.37,23.28,37.76,27.62,47.76h58.56l-41.2-88.22c-53.7-20.34-94.81-19.52-94.81-19.52,11.07,1.01,16.73,4.27,23.13,13.36,6.26,8.88,13.24,23.31,26.7,46.62"/>
      </g>
      <g class="cls-19">
        <path class="cls-2" d="m551.97,236.97c-98.56-110.23-222.59-107.74-222.59-107.74,11.07,1.01,16.73,4.27,23.13,13.36,3.02,4.28,6.21,9.86,10.21,17.1,105.11-2.29,189.25,77.29,189.25,77.29"/>
      </g>
      <g class="cls-27">
        <rect class="cls-18" x="147.91" y="-2.75" width="404.06" height="239.72"/>
      </g>
      <g class="cls-26">
        <path class="cls-3" d="m276.12,68.18c119.24,0,96.02-15.24,151.17,81.76,38.88,15.18,83.96,41.49,124.68,87.03-5.53-22.46-26.1-50.19-61.72-111.87-34.92-60.48-48.8-92.11-65.05-108.42-6.75-6.77-13.9-10.9-23.13-13.36-22.25-5.92-56.59-2.12-126.42-2.12-71.23,0-105.53-3.95-127.74,2.49l37.9,65.65c16.21-3.75,41.15-1.16,90.3-1.16"/>
      </g>
      <g class="cls-35">
        <path class="cls-1" d="m548.64,231.09c-1.41-4.02-3.15-7.95-4.99-11.74-3.78-7.79-8.16-15.38-12.55-22.84-5.98-10.15-12.15-20.2-18.24-30.29-8.09-13.39-16.08-26.82-23.91-40.37-7.69-13.32-15.2-26.72-22.62-40.19-5.63-10.2-11.19-20.45-16.91-30.6-4.23-7.51-8.58-15.06-13.36-22.24-3.53-5.3-7.42-10.57-11.92-15.09-6.54-6.56-13.5-10.58-22.46-12.97-6.17-1.64-12.67-2.37-19.03-2.78-8.6-.55-17.32-.54-25.94-.45-11.65.12-23.31.43-34.95.66-15.37.3-30.74.5-46.11.5s-31.28-.21-46.91-.52c-11.78-.23-23.57-.55-35.35-.65-8.66-.08-17.42-.07-26.05.55-5.72.41-11.56,1.11-17.15,2.54l71.11,123.16c2.79-.28,5.6-.38,8.4-.42,3.97-.06,7.94,0,11.91.07,11.36.21,22.69.48,34.05.48,10.97,0,21.91-.25,32.87-.46,3.9-.08,7.8-.14,11.69-.11,3.07.03,6.16.11,9.21.39,1.93-.04,3.9.03,5.82.1,5.22.21,10.45.65,15.64,1.23,18.12,2.04,36.21,5.95,53.64,11.26,25.19,7.67,49.42,18.46,71.99,32.02,26.76,16.08,50.9,35.9,72.11,58.74m3.33,5.88c-5.53-22.46-26.1-50.19-61.72-111.87-34.92-60.48-48.8-92.11-65.05-108.42-6.75-6.77-13.9-10.9-23.13-13.36-22.25-5.92-56.59-2.12-126.42-2.12-71.23,0-105.53-3.95-127.74,2.49l72.57,125.69c10.83-1.24,27.03.04,55.17.04s42.91-1.17,53.73-.18c0,0,124.03-2.49,222.59,107.74Z"/>
      </g>
      <g class="cls-17">
        <rect class="cls-40" x="147.91" y="352.88" width="204.6" height="138.9"/>
      </g>
      <g class="cls-21">
        <path class="cls-2" d="m275.65,366.05c-28.14,0-44.34,1.28-55.17.04l-29.28,50.72,97,8.43c44.46-36.33,64.31-72.35,64.31-72.35-6.41,9.08-12.06,12.35-23.13,13.36-10.82.98-26.81-.18-53.73-.18"/>
      </g>
      <g class="cls-15">
        <path class="cls-2" d="m147.91,491.78c144.74-30.24,204.6-138.9,204.6-138.9-6.41,9.08-12.06,12.35-23.13,13.36-5.22.47-11.64.45-19.91.29-50.57,92.17-161.56,125.25-161.56,125.25"/>
      </g>
      <g class="cls-33">
        <rect class="cls-20" x="147.91" y="258.5" width="404.06" height="239.72"/>
      </g>
      <g class="cls-6">
        <path class="cls-3" d="m432.01,337.28c-59.62,103.26-34.81,90.78-146.39,90.04-32.59,26.08-77.91,51.96-137.72,64.46,22.21,6.44,56.51,2.49,127.74,2.49,69.83,0,104.17,3.8,126.42-2.12,9.24-2.46,16.39-6.59,23.13-13.36,16.25-16.31,30.13-47.95,65.05-108.42,35.61-61.68,56.19-89.41,61.72-111.87h-75.81c-4.86,15.91-19.57,36.22-44.15,78.78"/>
      </g>
      <g class="cls-37">
        <path class="cls-1" d="m154.67,491.84c4.19.79,8.46,1.25,12.66,1.55,8.64.62,17.4.63,26.05.55,11.78-.11,23.57-.42,35.35-.65,15.64-.31,31.27-.52,46.91-.52s30.74.2,46.11.5c11.65.23,23.3.54,34.95.66,8.62.09,17.33.1,25.94-.45,6.36-.41,12.86-1.14,19.03-2.78,8.95-2.38,15.92-6.4,22.46-12.97,4.51-4.52,8.39-9.79,11.92-15.09,4.78-7.18,9.12-14.73,13.36-22.24,5.72-10.15,11.28-20.4,16.91-30.6,7.42-13.46,14.94-26.87,22.62-40.19,7.82-13.55,15.82-26.98,23.9-40.37,6.09-10.09,12.26-20.14,18.24-30.29,4.4-7.46,8.77-15.05,12.55-22.84,2.51-5.16,4.82-10.57,6.37-16.12h-142.22c-1.15,2.55-2.47,5.04-3.83,7.48-1.93,3.47-3.97,6.88-6.02,10.28-5.86,9.73-11.76,19.41-17.44,29.25-5.48,9.5-10.74,19.1-16.04,28.7-1.88,3.41-3.78,6.82-5.75,10.18-1.56,2.64-3.17,5.28-4.94,7.79-.93,1.69-1.97,3.36-3,4.99-2.79,4.42-5.78,8.73-8.89,12.93-10.82,14.67-23.26,28.38-36.57,40.82-19.24,17.98-40.7,33.57-63.73,46.34-27.31,15.14-56.54,26.13-86.93,33.08m-6.76-.06c22.21,6.44,56.51,2.49,127.74,2.49s104.17,3.8,126.42-2.12c9.24-2.46,16.39-6.59,23.13-13.36,16.25-16.31,30.13-47.95,65.05-108.42,35.61-61.68,56.19-89.41,61.72-111.87h-145.14c-4.34,10-13.55,23.39-27.62,47.76-13.46,23.31-20.44,37.74-26.7,46.62,0,0-59.86,108.66-204.6,138.9Z"/>
      </g>
    </g>
  </g>
</svg>